<svg width="573" height="356" viewBox="0 0 573 356" fill="none" xmlns="http://www.w3.org/2000/svg">
<g filter="url(#filter0_d_195_240)">
<path d="M229.144 117.392V122.128H209.752V137.168H225.496V141.904H209.752V162H203.928V117.392H229.144ZM242.252 132.624C243.276 130.619 244.727 129.061 246.604 127.952C248.524 126.843 250.849 126.288 253.58 126.288V132.304H252.044C245.516 132.304 242.252 135.845 242.252 142.928V162H236.428V126.928H242.252V132.624ZM275.849 162.576C272.564 162.576 269.577 161.829 266.889 160.336C264.244 158.843 262.153 156.731 260.617 154C259.124 151.227 258.377 148.027 258.377 144.4C258.377 140.816 259.145 137.659 260.681 134.928C262.26 132.155 264.393 130.043 267.081 128.592C269.769 127.099 272.777 126.352 276.105 126.352C279.433 126.352 282.441 127.099 285.129 128.592C287.817 130.043 289.929 132.133 291.465 134.864C293.044 137.595 293.833 140.773 293.833 144.4C293.833 148.027 293.022 151.227 291.401 154C289.822 156.731 287.668 158.843 284.937 160.336C282.206 161.829 279.177 162.576 275.849 162.576ZM275.849 157.456C277.94 157.456 279.902 156.965 281.737 155.984C283.572 155.003 285.044 153.531 286.153 151.568C287.305 149.605 287.881 147.216 287.881 144.4C287.881 141.584 287.326 139.195 286.217 137.232C285.108 135.269 283.657 133.819 281.865 132.88C280.073 131.899 278.132 131.408 276.041 131.408C273.908 131.408 271.945 131.899 270.153 132.88C268.404 133.819 266.996 135.269 265.929 137.232C264.862 139.195 264.329 141.584 264.329 144.4C264.329 147.259 264.841 149.669 265.865 151.632C266.932 153.595 268.34 155.067 270.089 156.048C271.838 156.987 273.758 157.456 275.849 157.456ZM318.829 126.288C323.095 126.288 326.551 127.589 329.197 130.192C331.842 132.752 333.165 136.464 333.165 141.328V162H327.405V142.16C327.405 138.661 326.53 135.995 324.781 134.16C323.031 132.283 320.642 131.344 317.613 131.344C314.541 131.344 312.087 132.304 310.253 134.224C308.461 136.144 307.565 138.939 307.565 142.608V162H301.741V126.928H307.565V131.92C308.717 130.128 310.274 128.741 312.237 127.76C314.242 126.779 316.439 126.288 318.829 126.288ZM350.032 131.728V152.4C350.032 154.107 350.395 155.323 351.12 156.048C351.845 156.731 353.104 157.072 354.896 157.072H359.184V162H353.936C350.693 162 348.261 161.253 346.64 159.76C345.019 158.267 344.208 155.813 344.208 152.4V131.728H339.664V126.928H344.208V118.096H350.032V126.928H359.184V131.728H350.032ZM398.491 143.12C398.491 144.229 398.427 145.403 398.299 146.64H370.267C370.48 150.096 371.653 152.805 373.787 154.768C375.963 156.688 378.587 157.648 381.659 157.648C384.176 157.648 386.267 157.072 387.931 155.92C389.637 154.725 390.832 153.147 391.515 151.184H397.787C396.848 154.555 394.971 157.307 392.155 159.44C389.339 161.531 385.84 162.576 381.659 162.576C378.331 162.576 375.344 161.829 372.699 160.336C370.096 158.843 368.048 156.731 366.555 154C365.061 151.227 364.315 148.027 364.315 144.4C364.315 140.773 365.04 137.595 366.491 134.864C367.941 132.133 369.968 130.043 372.571 128.592C375.216 127.099 378.245 126.352 381.659 126.352C384.987 126.352 387.931 127.077 390.491 128.528C393.051 129.979 395.013 131.984 396.379 134.544C397.787 137.061 398.491 139.92 398.491 143.12ZM392.475 141.904C392.475 139.685 391.984 137.787 391.003 136.208C390.021 134.587 388.677 133.371 386.971 132.56C385.307 131.707 383.451 131.28 381.403 131.28C378.459 131.28 375.941 132.219 373.851 134.096C371.803 135.973 370.629 138.576 370.331 141.904H392.475ZM423.516 126.288C427.783 126.288 431.239 127.589 433.884 130.192C436.529 132.752 437.852 136.464 437.852 141.328V162H432.092V142.16C432.092 138.661 431.217 135.995 429.468 134.16C427.719 132.283 425.329 131.344 422.3 131.344C419.228 131.344 416.775 132.304 414.94 134.224C413.148 136.144 412.252 138.939 412.252 142.608V162H406.428V126.928H412.252V131.92C413.404 130.128 414.961 128.741 416.924 127.76C418.929 126.779 421.127 126.288 423.516 126.288ZM445.44 144.336C445.44 140.752 446.165 137.616 447.616 134.928C449.066 132.197 451.05 130.085 453.568 128.592C456.128 127.099 458.986 126.352 462.144 126.352C464.874 126.352 467.413 126.992 469.76 128.272C472.106 129.509 473.898 131.152 475.136 133.2V114.64H481.024V162H475.136V155.408C473.984 157.499 472.277 159.227 470.016 160.592C467.754 161.915 465.109 162.576 462.08 162.576C458.965 162.576 456.128 161.808 453.568 160.272C451.05 158.736 449.066 156.581 447.616 153.808C446.165 151.035 445.44 147.877 445.44 144.336ZM475.136 144.4C475.136 141.755 474.602 139.451 473.536 137.488C472.469 135.525 471.018 134.032 469.184 133.008C467.392 131.941 465.408 131.408 463.232 131.408C461.056 131.408 459.072 131.92 457.28 132.944C455.488 133.968 454.058 135.461 452.992 137.424C451.925 139.387 451.392 141.691 451.392 144.336C451.392 147.024 451.925 149.371 452.992 151.376C454.058 153.339 455.488 154.853 457.28 155.92C459.072 156.944 461.056 157.456 463.232 157.456C465.408 157.456 467.392 156.944 469.184 155.92C471.018 154.853 472.469 153.339 473.536 151.376C474.602 149.371 475.136 147.045 475.136 144.4ZM217.816 194.392C222.68 194.392 226.883 195.309 230.424 197.144C234.008 198.936 236.739 201.517 238.616 204.888C240.536 208.259 241.496 212.227 241.496 216.792C241.496 221.357 240.536 225.325 238.616 228.696C236.739 232.024 234.008 234.584 230.424 236.376C226.883 238.125 222.68 239 217.816 239H203.928V194.392H217.816ZM217.816 234.2C223.576 234.2 227.971 232.685 231 229.656C234.029 226.584 235.544 222.296 235.544 216.792C235.544 211.245 234.008 206.915 230.936 203.8C227.907 200.685 223.533 199.128 217.816 199.128H209.752V234.2H217.816ZM281.428 220.12C281.428 221.229 281.364 222.403 281.236 223.64H253.204C253.417 227.096 254.591 229.805 256.724 231.768C258.9 233.688 261.524 234.648 264.596 234.648C267.113 234.648 269.204 234.072 270.868 232.92C272.575 231.725 273.769 230.147 274.452 228.184H280.724C279.785 231.555 277.908 234.307 275.092 236.44C272.276 238.531 268.777 239.576 264.596 239.576C261.268 239.576 258.281 238.829 255.636 237.336C253.033 235.843 250.985 233.731 249.492 231C247.999 228.227 247.252 225.027 247.252 221.4C247.252 217.773 247.977 214.595 249.428 211.864C250.879 209.133 252.905 207.043 255.508 205.592C258.153 204.099 261.183 203.352 264.596 203.352C267.924 203.352 270.868 204.077 273.428 205.528C275.988 206.979 277.951 208.984 279.316 211.544C280.724 214.061 281.428 216.92 281.428 220.12ZM275.412 218.904C275.412 216.685 274.921 214.787 273.94 213.208C272.959 211.587 271.615 210.371 269.908 209.56C268.244 208.707 266.388 208.28 264.34 208.28C261.396 208.28 258.879 209.219 256.788 211.096C254.74 212.973 253.567 215.576 253.268 218.904H275.412ZM302.422 233.624L313.302 203.928H319.51L305.75 239H298.966L285.206 203.928H291.478L302.422 233.624ZM357.491 220.12C357.491 221.229 357.427 222.403 357.299 223.64H329.267C329.48 227.096 330.653 229.805 332.787 231.768C334.963 233.688 337.587 234.648 340.659 234.648C343.176 234.648 345.267 234.072 346.931 232.92C348.637 231.725 349.832 230.147 350.515 228.184H356.787C355.848 231.555 353.971 234.307 351.155 236.44C348.339 238.531 344.84 239.576 340.659 239.576C337.331 239.576 334.344 238.829 331.699 237.336C329.096 235.843 327.048 233.731 325.555 231C324.061 228.227 323.315 225.027 323.315 221.4C323.315 217.773 324.04 214.595 325.491 211.864C326.941 209.133 328.968 207.043 331.571 205.592C334.216 204.099 337.245 203.352 340.659 203.352C343.987 203.352 346.931 204.077 349.491 205.528C352.051 206.979 354.013 208.984 355.379 211.544C356.787 214.061 357.491 216.92 357.491 220.12ZM351.475 218.904C351.475 216.685 350.984 214.787 350.003 213.208C349.021 211.587 347.677 210.371 345.971 209.56C344.307 208.707 342.451 208.28 340.403 208.28C337.459 208.28 334.941 209.219 332.851 211.096C330.803 212.973 329.629 215.576 329.331 218.904H351.475ZM371.252 191.64V239H365.428V191.64H371.252ZM396.724 239.576C393.439 239.576 390.452 238.829 387.764 237.336C385.119 235.843 383.028 233.731 381.492 231C379.999 228.227 379.252 225.027 379.252 221.4C379.252 217.816 380.02 214.659 381.556 211.928C383.135 209.155 385.268 207.043 387.956 205.592C390.644 204.099 393.652 203.352 396.98 203.352C400.308 203.352 403.316 204.099 406.004 205.592C408.692 207.043 410.804 209.133 412.34 211.864C413.919 214.595 414.708 217.773 414.708 221.4C414.708 225.027 413.897 228.227 412.276 231C410.697 233.731 408.543 235.843 405.812 237.336C403.081 238.829 400.052 239.576 396.724 239.576ZM396.724 234.456C398.815 234.456 400.777 233.965 402.612 232.984C404.447 232.003 405.919 230.531 407.028 228.568C408.18 226.605 408.756 224.216 408.756 221.4C408.756 218.584 408.201 216.195 407.092 214.232C405.983 212.269 404.532 210.819 402.74 209.88C400.948 208.899 399.007 208.408 396.916 208.408C394.783 208.408 392.82 208.899 391.028 209.88C389.279 210.819 387.871 212.269 386.804 214.232C385.737 216.195 385.204 218.584 385.204 221.4C385.204 224.259 385.716 226.669 386.74 228.632C387.807 230.595 389.215 232.067 390.964 233.048C392.713 233.987 394.633 234.456 396.724 234.456ZM428.44 210.392C429.592 208.387 431.298 206.723 433.56 205.4C435.864 204.035 438.53 203.352 441.56 203.352C444.674 203.352 447.49 204.099 450.007 205.592C452.567 207.085 454.573 209.197 456.024 211.928C457.474 214.616 458.2 217.752 458.2 221.336C458.2 224.877 457.474 228.035 456.024 230.808C454.573 233.581 452.567 235.736 450.007 237.272C447.49 238.808 444.674 239.576 441.56 239.576C438.573 239.576 435.928 238.915 433.624 237.592C431.362 236.227 429.634 234.541 428.44 232.536V255.64H422.616V203.928H428.44V210.392ZM452.248 221.336C452.248 218.691 451.714 216.387 450.648 214.424C449.581 212.461 448.13 210.968 446.296 209.944C444.504 208.92 442.52 208.408 440.344 208.408C438.21 208.408 436.226 208.941 434.392 210.008C432.6 211.032 431.149 212.547 430.04 214.552C428.973 216.515 428.44 218.797 428.44 221.4C428.44 224.045 428.973 226.371 430.04 228.376C431.149 230.339 432.6 231.853 434.392 232.92C436.226 233.944 438.21 234.456 440.344 234.456C442.52 234.456 444.504 233.944 446.296 232.92C448.13 231.853 449.581 230.339 450.648 228.376C451.714 226.371 452.248 224.024 452.248 221.336ZM498.116 220.12C498.116 221.229 498.052 222.403 497.924 223.64H469.892C470.105 227.096 471.278 229.805 473.412 231.768C475.588 233.688 478.212 234.648 481.284 234.648C483.801 234.648 485.892 234.072 487.556 232.92C489.262 231.725 490.457 230.147 491.14 228.184H497.412C496.473 231.555 494.596 234.307 491.78 236.44C488.964 238.531 485.465 239.576 481.284 239.576C477.956 239.576 474.969 238.829 472.324 237.336C469.721 235.843 467.673 233.731 466.18 231C464.686 228.227 463.94 225.027 463.94 221.4C463.94 217.773 464.665 214.595 466.116 211.864C467.566 209.133 469.593 207.043 472.196 205.592C474.841 204.099 477.87 203.352 481.284 203.352C484.612 203.352 487.556 204.077 490.116 205.528C492.676 206.979 494.638 208.984 496.004 211.544C497.412 214.061 498.116 216.92 498.116 220.12ZM492.1 218.904C492.1 216.685 491.609 214.787 490.628 213.208C489.646 211.587 488.302 210.371 486.596 209.56C484.932 208.707 483.076 208.28 481.028 208.28C478.084 208.28 475.566 209.219 473.476 211.096C471.428 212.973 470.254 215.576 469.956 218.904H492.1ZM511.877 209.624C512.901 207.619 514.352 206.061 516.229 204.952C518.149 203.843 520.474 203.288 523.205 203.288V209.304H521.669C515.141 209.304 511.877 212.845 511.877 219.928V239H506.053V203.928H511.877V209.624Z" fill="#F3F4F6"/>
</g>
<g clip-path="url(#clip0_195_240)">
<g filter="url(#filter1_d_195_240)">
<path d="M116.85 182.214C116.918 182.214 116.987 182.214 117.057 182.214C117.288 182.213 117.52 182.214 117.751 182.214C117.917 182.214 118.084 182.214 118.251 182.213C118.71 182.213 119.17 182.213 119.629 182.214C120.124 182.214 120.619 182.213 121.115 182.213C122.085 182.213 123.056 182.213 124.027 182.213C124.816 182.213 125.605 182.213 126.394 182.213C126.506 182.213 126.618 182.213 126.734 182.213C126.961 182.213 127.189 182.213 127.417 182.213C129.556 182.213 131.695 182.213 133.833 182.214C135.668 182.214 137.503 182.214 139.338 182.214C141.468 182.213 143.598 182.213 145.728 182.213C145.955 182.213 146.182 182.213 146.409 182.213C146.521 182.213 146.633 182.213 146.748 182.213C147.535 182.213 148.323 182.213 149.112 182.213C150.072 182.213 151.032 182.213 151.992 182.213C152.483 182.214 152.973 182.214 153.463 182.213C153.911 182.213 154.361 182.213 154.809 182.214C154.971 182.214 155.133 182.214 155.295 182.214C157.793 182.21 157.793 182.21 158.469 182.813C159.215 183.631 159.07 184.798 159.068 185.836C159.068 185.95 159.068 186.063 159.068 186.18C159.069 186.493 159.068 186.806 159.068 187.119C159.068 187.459 159.068 187.8 159.069 188.141C159.069 188.739 159.069 189.335 159.069 189.932C159.069 190.82 159.07 191.707 159.07 192.595C159.071 194.274 159.071 195.952 159.071 197.629C159.072 198.925 159.072 200.22 159.072 201.516C159.072 201.889 159.072 202.262 159.072 202.635C159.072 202.775 159.072 202.775 159.072 202.916C159.073 205.525 159.073 208.133 159.073 210.742C159.073 210.84 159.073 210.938 159.073 211.039C159.073 211.537 159.073 212.037 159.073 212.535C159.073 212.683 159.073 212.683 159.073 212.834C159.073 213.035 159.073 213.235 159.073 213.435C159.073 216.549 159.073 219.663 159.074 222.778C159.076 226.277 159.077 229.777 159.077 233.276C159.077 233.649 159.077 234.022 159.077 234.395C159.077 234.533 159.077 234.533 159.077 234.673C159.077 236.152 159.077 237.63 159.078 239.109C159.079 240.594 159.079 242.079 159.078 243.565C159.078 244.448 159.078 245.329 159.079 246.212C159.08 246.802 159.08 247.392 159.079 247.982C159.079 248.317 159.078 248.653 159.079 248.989C159.08 249.351 159.079 249.713 159.079 250.077C159.079 250.179 159.08 250.283 159.08 250.389C159.071 252.473 159.071 252.473 158.469 253.125C157.592 253.914 156.147 253.74 155.036 253.737C154.869 253.738 154.701 253.738 154.533 253.739C154.075 253.74 153.618 253.74 153.16 253.74C152.665 253.74 152.17 253.741 151.675 253.742C150.707 253.743 149.739 253.744 148.771 253.744C147.984 253.744 147.197 253.745 146.41 253.745C144.178 253.746 141.947 253.747 139.714 253.747C139.594 253.747 139.474 253.747 139.35 253.747C139.23 253.747 139.11 253.747 138.986 253.747C137.033 253.747 135.081 253.748 133.129 253.751C131.123 253.754 129.118 253.756 127.113 253.755C125.987 253.755 124.862 253.756 123.736 253.758C122.779 253.76 121.821 253.76 120.863 253.759C120.374 253.758 119.885 253.758 119.397 253.76C118.949 253.762 118.502 253.761 118.055 253.76C117.893 253.759 117.732 253.76 117.57 253.761C116.051 253.77 116.051 253.77 115.403 253.321C115.048 252.874 114.902 252.528 114.902 251.964C114.902 251.865 114.901 251.765 114.901 251.662C114.901 251.553 114.901 251.444 114.901 251.33C114.901 251.156 114.901 251.156 114.901 250.978C114.9 250.653 114.9 250.327 114.9 250.001C114.9 249.648 114.899 249.295 114.899 248.942C114.898 248.241 114.898 247.538 114.897 246.837C114.897 245.997 114.896 245.158 114.895 244.317C114.893 242.287 114.892 240.256 114.891 238.226C114.891 237.266 114.89 236.306 114.89 235.346C114.888 232.061 114.887 228.775 114.886 225.49C114.886 225.284 114.886 225.078 114.886 224.87C114.886 224.769 114.886 224.666 114.886 224.561C114.885 224.042 114.885 223.524 114.885 223.005C114.885 222.851 114.885 222.851 114.885 222.694C114.884 219.357 114.882 216.021 114.879 212.684C114.875 209.159 114.873 205.632 114.873 202.106C114.873 201.719 114.873 201.332 114.873 200.946C114.873 200.85 114.873 200.755 114.873 200.657C114.873 199.122 114.871 197.587 114.869 196.053C114.867 194.511 114.866 192.969 114.867 191.427C114.868 190.51 114.867 189.594 114.865 188.677C114.865 188.066 114.865 187.453 114.865 186.841C114.866 186.493 114.866 186.144 114.865 185.795C114.863 185.419 114.865 185.043 114.865 184.668C114.865 184.56 114.864 184.452 114.863 184.339C114.868 183.723 114.93 183.222 115.305 182.715C115.823 182.302 116.198 182.214 116.85 182.214ZM126.242 193.457C126.012 193.748 125.895 194.008 125.764 194.354C125.605 194.761 125.439 194.886 125.071 195.118C124.92 195.172 124.77 195.228 124.618 195.282C124.332 195.399 124.218 195.459 124.066 195.732C124.003 195.904 123.943 196.077 123.885 196.25C123.691 196.79 123.28 197 122.794 197.247C122.643 197.318 122.491 197.388 122.336 197.461C122.336 198.106 122.336 198.75 122.336 199.414C122.611 199.535 122.611 199.535 122.892 199.659C123.458 199.942 123.75 200.2 123.996 200.782C124.054 200.962 124.054 200.962 124.113 201.148C124.347 201.569 124.58 201.598 125.021 201.75C125.411 201.918 125.637 202.177 125.852 202.539C125.895 202.69 125.938 202.84 125.98 202.991C126.08 203.245 126.168 203.379 126.413 203.506C127.384 203.884 127.384 203.884 128.391 203.809C128.637 203.668 128.637 203.668 128.781 203.418C128.781 203.126 128.747 202.918 128.684 202.637C128.666 202.526 128.648 202.413 128.63 202.299C128.553 201.921 128.471 201.612 128.293 201.27C128.001 201.078 127.732 200.983 127.4 200.879C126.99 200.735 126.861 200.559 126.633 200.196C126.365 199.627 126.402 199.074 126.401 198.455C126.399 198.343 126.396 198.231 126.394 198.116C126.391 197.324 126.473 196.762 127.035 196.167C127.317 195.996 127.317 195.996 127.547 195.948C127.86 195.872 128.04 195.809 128.293 195.606C128.599 195.012 128.817 194.231 128.754 193.562C128.657 193.284 128.526 193.148 128.293 192.969C127.608 192.969 126.848 193.12 126.242 193.457ZM145.402 193.17C145.151 193.44 145.151 193.44 145.215 193.774C145.239 193.895 145.261 194.016 145.285 194.141C145.312 194.312 145.312 194.312 145.339 194.486C145.481 195.191 145.481 195.191 145.946 195.705C146.151 195.801 146.359 195.891 146.569 195.974C147.029 196.171 147.23 196.455 147.443 196.906C147.608 197.396 147.568 197.907 147.568 198.419C147.571 198.532 147.573 198.644 147.575 198.759C147.578 199.593 147.479 200.142 146.878 200.757C146.697 200.901 146.565 200.974 146.339 201.035C146.059 201.113 145.899 201.176 145.676 201.368C145.383 201.934 145.153 202.669 145.215 203.309C145.315 203.602 145.42 203.731 145.676 203.907C146 203.878 146 203.878 146.36 203.809C146.473 203.79 146.587 203.773 146.704 203.755C147.411 203.613 147.411 203.613 147.928 203.145C148.077 202.837 148.077 202.837 148.185 202.527C148.338 202.19 148.491 202.055 148.801 201.856C148.962 201.801 149.124 201.752 149.289 201.709C149.626 201.584 149.747 201.518 149.925 201.2C150.002 200.994 150.076 200.787 150.148 200.578C150.413 199.934 150.934 199.715 151.535 199.414C151.535 198.77 151.535 198.125 151.535 197.461C151.332 197.358 151.332 197.358 151.126 197.253C150.521 196.912 150.217 196.557 150.016 195.892C149.893 195.554 149.827 195.438 149.51 195.259C149.302 195.181 149.093 195.105 148.884 195.032C148.471 194.869 148.349 194.713 148.117 194.336C148.099 194.265 148.08 194.194 148.061 194.12C147.981 193.841 147.918 193.679 147.727 193.457C147.103 193.143 145.999 192.731 145.402 193.17ZM137.473 193.457C137.38 193.759 137.337 194.067 137.289 194.378C137.104 195.435 136.875 196.282 136.008 196.973C135.779 197.324 135.741 197.716 135.683 198.123C135.658 198.277 135.635 198.43 135.612 198.583C135.594 198.703 135.594 198.703 135.575 198.826C135.365 200.215 135.121 201.577 134.739 202.93C134.705 203.06 134.672 203.19 134.641 203.321C135.445 203.698 135.445 203.698 136.301 203.614C136.525 203.39 136.535 203.306 136.587 203.002C136.61 202.877 136.61 202.877 136.633 202.749C136.663 202.576 136.694 202.401 136.723 202.227C136.899 201.272 137.176 200.607 137.92 199.964C138.087 199.772 138.117 199.642 138.162 199.393C138.185 199.27 138.185 199.27 138.208 199.144C138.223 199.056 138.239 198.968 138.254 198.877C138.271 198.786 138.287 198.694 138.304 198.599C138.397 198.082 138.479 197.565 138.556 197.045C138.702 196.059 138.923 195.103 139.179 194.139C139.231 193.945 139.28 193.75 139.328 193.555C139.176 193.489 139.024 193.423 138.87 193.36C138.785 193.323 138.7 193.287 138.613 193.249C138.154 193.099 137.805 193.073 137.473 193.457ZM121.946 213.086C121.886 213.304 121.886 213.304 121.894 213.537C121.893 213.622 121.893 213.707 121.892 213.795C121.894 213.883 121.895 213.972 121.897 214.063C121.895 214.151 121.894 214.239 121.892 214.329C121.893 214.414 121.893 214.499 121.894 214.587C121.894 214.664 121.895 214.742 121.895 214.822C121.965 215.126 122.095 215.234 122.336 215.43C122.609 215.489 122.609 215.489 122.912 215.48C123.086 215.482 123.086 215.482 123.264 215.484C123.45 215.483 123.45 215.483 123.642 215.482C123.771 215.482 123.9 215.482 124.031 215.483C124.304 215.483 124.575 215.483 124.847 215.481C125.196 215.478 125.543 215.48 125.892 215.482C126.224 215.484 126.557 215.483 126.889 215.482C127.014 215.483 127.139 215.483 127.268 215.484C127.384 215.483 127.5 215.482 127.619 215.48C127.773 215.48 127.773 215.48 127.929 215.479C128.262 215.417 128.378 215.302 128.586 215.039C128.645 214.821 128.645 214.821 128.638 214.587C128.638 214.502 128.639 214.417 128.639 214.329C128.637 214.198 128.637 214.198 128.635 214.063C128.636 213.974 128.638 213.886 128.639 213.795C128.639 213.667 128.639 213.667 128.638 213.537C128.637 213.46 128.637 213.383 128.637 213.303C128.566 212.999 128.437 212.891 128.196 212.696C127.923 212.636 127.923 212.636 127.619 212.645C127.503 212.644 127.387 212.642 127.268 212.641C127.143 212.642 127.018 212.643 126.889 212.643C126.761 212.643 126.632 212.643 126.499 212.642C126.228 212.642 125.955 212.643 125.684 212.644C125.336 212.647 124.988 212.645 124.64 212.643C124.307 212.641 123.975 212.642 123.642 212.643C123.454 212.642 123.454 212.642 123.264 212.641C123.089 212.643 123.089 212.643 122.912 212.645C122.81 212.645 122.708 212.645 122.603 212.646C122.269 212.707 122.154 212.823 121.946 213.086ZM133.664 213.086C133.605 213.304 133.605 213.304 133.613 213.537C133.612 213.622 133.612 213.707 133.611 213.795C133.613 213.883 133.614 213.972 133.615 214.063C133.614 214.151 133.613 214.239 133.611 214.329C133.612 214.414 133.612 214.499 133.613 214.587C133.613 214.664 133.614 214.742 133.614 214.822C133.684 215.125 133.815 215.234 134.055 215.43C134.321 215.488 134.321 215.488 134.618 215.479C134.733 215.481 134.848 215.482 134.967 215.483C135.092 215.482 135.218 215.481 135.348 215.48C135.482 215.481 135.616 215.482 135.75 215.482C136.115 215.484 136.478 215.484 136.842 215.482C137.223 215.481 137.604 215.482 137.985 215.483C138.624 215.484 139.264 215.483 139.904 215.481C140.644 215.479 141.383 215.479 142.122 215.481C142.758 215.483 143.393 215.484 144.028 215.482C144.406 215.482 144.786 215.482 145.165 215.483C145.522 215.484 145.878 215.483 146.235 215.481C146.428 215.48 146.621 215.482 146.815 215.483C146.988 215.481 146.988 215.481 147.163 215.479C147.263 215.479 147.364 215.479 147.466 215.479C147.795 215.416 147.911 215.298 148.117 215.039C148.176 214.821 148.176 214.821 148.169 214.587C148.169 214.502 148.17 214.417 148.17 214.329C148.168 214.198 148.168 214.198 148.166 214.063C148.167 213.974 148.169 213.886 148.17 213.795C148.17 213.667 148.17 213.667 148.169 213.537C148.168 213.421 148.168 213.421 148.168 213.303C148.097 212.999 147.967 212.891 147.727 212.696C147.46 212.637 147.46 212.637 147.163 212.646C147.048 212.645 146.933 212.644 146.815 212.642C146.689 212.643 146.563 212.644 146.434 212.645C146.299 212.644 146.165 212.644 146.031 212.643C145.667 212.641 145.303 212.642 144.939 212.643C144.558 212.644 144.177 212.643 143.796 212.642C143.156 212.642 142.517 212.643 141.877 212.644C141.138 212.647 140.399 212.646 139.658 212.644C139.024 212.642 138.389 212.642 137.754 212.643C137.374 212.643 136.995 212.643 136.616 212.642C136.259 212.641 135.903 212.642 135.546 212.644C135.353 212.645 135.159 212.644 134.967 212.642C134.794 212.644 134.794 212.644 134.618 212.646C134.518 212.646 134.418 212.646 134.316 212.646C133.986 212.708 133.869 212.827 133.664 213.086ZM125.852 220.899C125.792 221.117 125.792 221.117 125.8 221.35C125.799 221.435 125.799 221.52 125.798 221.608C125.8 221.696 125.801 221.785 125.803 221.875C125.801 221.963 125.8 222.051 125.798 222.142C125.799 222.227 125.799 222.312 125.8 222.4C125.8 222.477 125.801 222.554 125.801 222.634C125.875 222.952 125.978 223.047 126.242 223.243C126.553 223.301 126.861 223.295 127.177 223.292C127.272 223.293 127.366 223.294 127.464 223.294C127.777 223.296 128.09 223.295 128.403 223.294C128.62 223.294 128.838 223.294 129.055 223.295C129.511 223.295 129.967 223.295 130.422 223.293C131.007 223.29 131.592 223.292 132.176 223.294C132.625 223.296 133.074 223.295 133.524 223.294C133.739 223.294 133.954 223.294 134.17 223.295C134.471 223.296 134.772 223.295 135.073 223.292C135.207 223.294 135.207 223.294 135.344 223.295C135.836 223.291 135.836 223.291 136.258 223.057C136.421 222.818 136.448 222.688 136.45 222.4C136.45 222.315 136.451 222.23 136.451 222.142C136.449 222.01 136.449 222.01 136.448 221.875C136.448 221.787 136.45 221.699 136.451 221.608C136.451 221.48 136.451 221.48 136.45 221.35C136.449 221.273 136.449 221.196 136.449 221.116C136.375 220.798 136.272 220.703 136.008 220.508C135.697 220.449 135.389 220.454 135.073 220.457C134.979 220.456 134.884 220.455 134.786 220.455C134.473 220.454 134.16 220.454 133.847 220.455C133.63 220.455 133.412 220.455 133.195 220.454C132.74 220.454 132.283 220.455 131.827 220.456C131.243 220.459 130.658 220.457 130.073 220.455C129.625 220.454 129.176 220.454 128.727 220.455C128.511 220.455 128.296 220.455 128.08 220.454C127.779 220.453 127.478 220.455 127.177 220.457C127.087 220.456 126.998 220.455 126.906 220.454C126.425 220.461 126.143 220.471 125.852 220.899ZM141.477 220.899C141.417 221.117 141.417 221.117 141.425 221.35C141.424 221.435 141.424 221.52 141.423 221.608C141.425 221.696 141.426 221.785 141.428 221.875C141.426 221.963 141.425 222.051 141.423 222.142C141.424 222.227 141.424 222.312 141.425 222.4C141.425 222.477 141.426 222.554 141.426 222.634C141.496 222.939 141.626 223.046 141.867 223.243C142.14 223.301 142.14 223.301 142.444 223.292C142.617 223.294 142.617 223.294 142.795 223.296C142.982 223.295 142.982 223.295 143.173 223.294C143.302 223.294 143.431 223.294 143.563 223.295C143.835 223.295 144.107 223.295 144.378 223.293C144.727 223.29 145.074 223.292 145.423 223.294C145.755 223.296 146.088 223.295 146.42 223.294C146.545 223.295 146.67 223.295 146.799 223.296C146.915 223.295 147.031 223.294 147.151 223.292C147.304 223.292 147.304 223.292 147.46 223.291C147.793 223.23 147.909 223.115 148.117 222.852C148.176 222.633 148.176 222.633 148.169 222.4C148.169 222.315 148.17 222.23 148.17 222.142C148.168 222.01 148.168 222.01 148.166 221.875C148.167 221.787 148.169 221.699 148.17 221.608C148.17 221.48 148.17 221.48 148.169 221.35C148.168 221.273 148.168 221.196 148.168 221.116C148.097 220.812 147.968 220.704 147.727 220.508C147.454 220.449 147.454 220.449 147.151 220.457C147.034 220.456 146.918 220.454 146.799 220.454C146.674 220.454 146.549 220.455 146.42 220.455C146.292 220.455 146.163 220.455 146.031 220.454C145.759 220.454 145.487 220.455 145.215 220.456C144.867 220.459 144.519 220.457 144.171 220.455C143.838 220.454 143.506 220.454 143.173 220.455C142.986 220.454 142.986 220.454 142.795 220.454C142.62 220.455 142.62 220.455 142.444 220.457C142.341 220.457 142.24 220.457 142.134 220.458C141.8 220.52 141.685 220.635 141.477 220.899ZM121.946 228.711C121.886 228.929 121.886 228.929 121.894 229.162C121.893 229.247 121.893 229.332 121.892 229.42C121.894 229.508 121.895 229.597 121.897 229.688C121.895 229.776 121.894 229.864 121.892 229.954C121.893 230.039 121.893 230.124 121.894 230.212C121.894 230.289 121.895 230.367 121.895 230.447C121.965 230.751 122.095 230.859 122.336 231.055C122.609 231.114 122.609 231.114 122.912 231.105C123.086 231.107 123.086 231.107 123.264 231.109C123.45 231.108 123.45 231.108 123.642 231.107C123.771 231.107 123.9 231.107 124.031 231.108C124.304 231.108 124.575 231.108 124.847 231.106C125.196 231.103 125.543 231.105 125.892 231.107C126.224 231.109 126.557 231.108 126.889 231.107C127.014 231.108 127.139 231.108 127.268 231.109C127.384 231.108 127.5 231.107 127.619 231.105C127.773 231.105 127.773 231.105 127.929 231.104C128.262 231.042 128.378 230.927 128.586 230.664C128.645 230.446 128.645 230.446 128.638 230.212C128.638 230.127 128.639 230.042 128.639 229.954C128.637 229.823 128.637 229.823 128.635 229.688C128.636 229.599 128.638 229.511 128.639 229.42C128.639 229.292 128.639 229.292 128.638 229.162C128.637 229.085 128.637 229.008 128.637 228.928C128.566 228.624 128.437 228.516 128.196 228.321C127.923 228.261 127.923 228.261 127.619 228.27C127.503 228.269 127.387 228.267 127.268 228.266C127.143 228.267 127.018 228.268 126.889 228.268C126.761 228.268 126.632 228.268 126.499 228.267C126.228 228.267 125.955 228.268 125.684 228.269C125.336 228.272 124.988 228.27 124.64 228.268C124.307 228.266 123.975 228.267 123.642 228.268C123.454 228.267 123.454 228.267 123.264 228.266C123.089 228.268 123.089 228.268 122.912 228.27C122.81 228.27 122.708 228.27 122.603 228.271C122.269 228.332 122.154 228.448 121.946 228.711ZM133.664 228.711C133.605 228.929 133.605 228.929 133.613 229.162C133.612 229.247 133.612 229.332 133.611 229.42C133.613 229.508 133.614 229.597 133.615 229.688C133.614 229.776 133.613 229.864 133.611 229.954C133.612 230.039 133.612 230.124 133.613 230.212C133.613 230.289 133.614 230.367 133.614 230.447C133.688 230.764 133.79 230.86 134.055 231.055C134.365 231.114 134.673 231.108 134.99 231.105C135.084 231.106 135.179 231.107 135.277 231.107C135.589 231.109 135.903 231.108 136.215 231.107C136.433 231.107 136.651 231.107 136.867 231.108C137.323 231.108 137.78 231.108 138.235 231.106C138.82 231.103 139.405 231.105 139.989 231.107C140.438 231.109 140.887 231.108 141.336 231.107C141.551 231.107 141.767 231.107 141.983 231.108C142.283 231.109 142.584 231.108 142.886 231.105C143.02 231.107 143.02 231.107 143.156 231.108C143.649 231.104 143.649 231.104 144.071 230.87C144.234 230.63 144.261 230.5 144.263 230.212C144.263 230.127 144.264 230.042 144.264 229.954C144.262 229.823 144.262 229.823 144.26 229.688C144.261 229.599 144.263 229.511 144.264 229.42C144.264 229.292 144.264 229.292 144.263 229.162C144.262 229.085 144.262 229.008 144.262 228.928C144.188 228.611 144.084 228.515 143.821 228.321C143.509 228.261 143.201 228.267 142.886 228.27C142.791 228.269 142.697 228.268 142.599 228.268C142.285 228.266 141.973 228.267 141.659 228.268C141.443 228.268 141.225 228.268 141.007 228.267C140.552 228.267 140.096 228.268 139.64 228.269C139.056 228.272 138.471 228.27 137.886 228.268C137.438 228.267 136.989 228.267 136.539 228.268C136.323 228.268 136.109 228.268 135.893 228.267C135.591 228.266 135.29 228.268 134.99 228.27C134.9 228.269 134.811 228.268 134.719 228.267C134.238 228.274 133.955 228.284 133.664 228.711ZM125.852 236.524C125.792 236.742 125.792 236.742 125.8 236.975C125.799 237.06 125.799 237.145 125.798 237.233C125.8 237.321 125.801 237.41 125.803 237.5C125.801 237.588 125.8 237.676 125.798 237.767C125.799 237.852 125.799 237.937 125.8 238.025C125.8 238.102 125.801 238.179 125.801 238.259C125.871 238.563 126.002 238.671 126.242 238.868C126.508 238.925 126.508 238.925 126.806 238.916C126.92 238.918 127.035 238.919 127.155 238.92C127.28 238.919 127.406 238.918 127.535 238.917C127.669 238.918 127.804 238.919 127.938 238.919C128.302 238.921 128.665 238.921 129.03 238.919C129.41 238.918 129.791 238.919 130.172 238.92C130.812 238.921 131.451 238.92 132.091 238.918C132.831 238.916 133.571 238.916 134.31 238.918C134.946 238.92 135.58 238.921 136.215 238.919C136.594 238.919 136.974 238.919 137.353 238.92C137.709 238.921 138.066 238.92 138.422 238.918C138.615 238.917 138.809 238.919 139.002 238.92C139.175 238.918 139.175 238.918 139.351 238.916C139.45 238.916 139.551 238.916 139.654 238.916C139.983 238.854 140.099 238.736 140.305 238.477C140.364 238.258 140.364 238.258 140.357 238.025C140.357 237.94 140.358 237.855 140.358 237.767C140.356 237.635 140.356 237.635 140.354 237.5C140.355 237.412 140.357 237.324 140.358 237.233C140.358 237.105 140.358 237.105 140.357 236.975C140.356 236.859 140.356 236.859 140.356 236.741C140.284 236.437 140.155 236.329 139.914 236.133C139.648 236.075 139.648 236.075 139.351 236.083C139.236 236.082 139.12 236.081 139.002 236.079C138.876 236.08 138.75 236.081 138.621 236.082C138.487 236.081 138.353 236.081 138.219 236.08C137.855 236.079 137.49 236.079 137.126 236.08C136.745 236.081 136.365 236.08 135.984 236.079C135.344 236.079 134.704 236.08 134.065 236.081C133.325 236.084 132.586 236.083 131.846 236.081C131.211 236.079 130.576 236.079 129.942 236.08C129.562 236.08 129.183 236.08 128.804 236.079C128.447 236.079 128.09 236.079 127.734 236.081C127.54 236.082 127.347 236.081 127.155 236.079C126.982 236.081 126.982 236.081 126.806 236.083C126.705 236.083 126.606 236.083 126.503 236.083C126.173 236.146 126.057 236.264 125.852 236.524ZM145.52 236.27C145.303 236.669 145.326 237.053 145.334 237.5C145.332 237.588 145.331 237.676 145.329 237.767C145.331 238.137 145.342 238.402 145.52 238.73C145.92 238.947 146.303 238.923 146.75 238.916C146.882 238.918 146.882 238.918 147.017 238.92C147.387 238.918 147.652 238.908 147.98 238.73C148.197 238.33 148.174 237.947 148.166 237.5C148.167 237.412 148.169 237.324 148.17 237.233C148.168 236.863 148.158 236.599 147.98 236.27C147.58 236.053 147.198 236.077 146.75 236.084C146.662 236.082 146.573 236.08 146.483 236.079C146.113 236.081 145.849 236.092 145.52 236.27Z" fill="#F3F4F6"/>
</g>
<g filter="url(#filter2_d_195_240)">
<path d="M74.2615 264.245C74.408 264.245 74.5535 264.245 74.7 264.244C75.1014 264.244 75.5037 264.244 75.9051 264.244C76.3426 264.245 76.7791 264.244 77.2166 264.244C77.9822 264.243 78.7488 264.243 79.5145 264.243C80.6541 264.243 81.7928 264.243 82.9324 264.242C85.0848 264.241 87.2381 264.241 89.3914 264.241C91.0535 264.241 92.7156 264.241 94.3787 264.241C94.8572 264.24 95.3357 264.24 95.8133 264.24C95.9324 264.24 96.0516 264.24 96.1736 264.24C99.5193 264.24 102.865 264.239 106.211 264.239C106.4 264.239 106.4 264.239 106.594 264.239C107.232 264.239 107.872 264.239 108.512 264.239C108.702 264.239 108.702 264.239 108.896 264.239C109.153 264.239 109.41 264.239 109.667 264.239C113.663 264.239 117.659 264.239 121.655 264.237C126.143 264.236 130.632 264.235 135.121 264.235C135.599 264.235 136.078 264.235 136.556 264.235C136.674 264.235 136.792 264.235 136.913 264.235C138.81 264.235 140.707 264.234 142.603 264.234C144.51 264.234 146.416 264.234 148.322 264.234C149.455 264.234 150.588 264.234 151.72 264.233C152.476 264.233 153.233 264.233 153.99 264.234C154.421 264.234 154.851 264.234 155.283 264.233C155.676 264.233 156.068 264.233 156.461 264.234C156.601 264.234 156.742 264.234 156.883 264.233C159.486 264.224 159.486 264.224 160.303 264.888C160.727 265.369 160.885 265.858 161.038 266.474C161.075 266.61 161.075 266.61 161.112 266.75C161.287 267.405 161.287 267.405 161.341 267.693C161.438 267.992 161.728 268.095 161.984 268.262C162.589 268.852 162.786 269.583 162.975 270.391C162.995 270.473 163.015 270.556 163.036 270.641C163.075 270.806 163.112 270.972 163.146 271.138C163.246 271.561 163.295 271.732 163.644 272.012C163.741 272.064 163.838 272.115 163.937 272.168C164.542 272.758 164.739 273.489 164.929 274.297C164.959 274.42 164.959 274.42 164.989 274.547C165.028 274.712 165.065 274.878 165.099 275.044C165.199 275.467 165.248 275.638 165.597 275.918C165.694 275.97 165.791 276.022 165.89 276.074C166.495 276.664 166.692 277.396 166.882 278.203C166.901 278.285 166.922 278.368 166.942 278.453C166.981 278.618 167.018 278.784 167.053 278.95C167.152 279.373 167.201 279.544 167.551 279.824C167.647 279.876 167.744 279.928 167.844 279.981C168.339 280.464 168.521 280.986 168.722 281.641C168.761 281.762 168.799 281.883 168.837 282.008C169.078 282.819 169.249 283.42 168.857 284.204C168.505 284.612 168.088 284.864 167.551 284.961C167.311 284.97 167.075 284.974 166.836 284.974C166.763 284.974 166.69 284.974 166.616 284.974C166.37 284.975 166.125 284.975 165.88 284.974C165.702 284.974 165.524 284.975 165.346 284.975C164.855 284.976 164.363 284.976 163.872 284.976C163.339 284.976 162.804 284.976 162.271 284.977C161.212 284.978 160.152 284.978 159.092 284.978C157.823 284.979 156.554 284.979 155.286 284.98C152.219 284.982 149.152 284.983 146.086 284.984C145.07 284.984 144.054 284.984 143.039 284.984C142.968 284.984 142.895 284.984 142.822 284.984C142.532 284.984 142.242 284.985 141.953 284.985C136.996 284.986 132.04 284.988 127.083 284.989C126.694 284.989 126.304 284.989 125.915 284.989C125.8 284.989 125.8 284.989 125.681 284.989C124.898 284.989 124.116 284.989 123.334 284.989C123.177 284.989 123.019 284.989 122.862 284.989C117.823 284.99 112.783 284.992 107.743 284.996C104.122 284.998 100.502 285 96.8807 285.001C96.8064 285.001 96.7312 285.001 96.6551 285.001C95.0203 285.001 93.3865 285.001 91.7518 285.002C91.0945 285.002 90.4363 285.002 89.7791 285.002C89.6717 285.002 89.6717 285.002 89.5613 285.002C87.242 285.002 84.9227 285.003 82.6043 285.005C80.2039 285.008 77.8025 285.008 75.4021 285.007C74.0174 285.007 72.6336 285.007 71.2488 285.009C70.325 285.011 69.4002 285.011 68.4764 285.009C67.949 285.009 67.4227 285.009 66.8953 285.01C66.4158 285.012 65.9373 285.012 65.4578 285.01C65.285 285.01 65.1131 285.01 64.9402 285.011C62.9754 285.023 62.9754 285.023 62.2283 284.351C61.8709 283.695 61.8543 283.187 62.0457 282.489C62.0643 282.417 62.0828 282.345 62.1023 282.271C62.158 282.06 62.2166 281.85 62.2771 281.641C62.323 281.481 62.323 281.481 62.3709 281.318C62.5574 280.746 62.7937 280.281 63.2537 279.883C63.3367 279.842 63.4187 279.802 63.5037 279.76C63.8367 279.522 63.8553 279.313 63.9432 278.918C63.9754 278.786 64.0066 278.654 64.0389 278.523C64.0545 278.456 64.0691 278.39 64.0857 278.321C64.3309 277.302 64.5437 276.523 65.4021 275.879C65.8143 275.552 65.8924 275.197 65.9881 274.701C66.0203 274.552 66.0535 274.402 66.0867 274.253C66.1033 274.18 66.1189 274.108 66.1355 274.032C66.3143 273.273 66.5574 272.592 67.16 272.07C67.243 272.029 67.325 271.989 67.41 271.947C67.743 271.709 67.7615 271.5 67.8494 271.106C67.8816 270.974 67.9129 270.842 67.9451 270.71C67.9686 270.61 67.9686 270.61 67.992 270.509C68.2371 269.489 68.45 268.71 69.3084 268.067C69.7254 267.737 69.7986 267.376 69.8943 266.876C70.2518 265.221 70.2518 265.221 70.9773 264.663C71.9031 264.108 73.2264 264.243 74.2615 264.245ZM75.2078 269.473C74.991 269.873 75.0135 270.256 75.0213 270.703C75.0203 270.791 75.0184 270.879 75.0174 270.97C75.0193 271.341 75.0291 271.605 75.2078 271.933C75.6072 272.15 75.99 272.127 76.4373 272.119C76.5701 272.121 76.5701 272.121 76.7049 272.124C77.075 272.121 77.3387 272.111 77.6678 271.933C77.8836 271.533 77.8611 271.151 77.8533 270.703C77.8553 270.615 77.8562 270.526 77.8582 270.436C77.8562 270.066 77.8455 269.802 77.6678 269.473C77.2674 269.257 76.8846 269.279 76.4373 269.287C76.3494 269.285 76.2615 269.284 76.1707 269.282C75.8006 269.284 75.5359 269.295 75.2078 269.473ZM83.0203 269.473C82.8035 269.873 82.826 270.256 82.8338 270.703C82.8328 270.791 82.8309 270.879 82.8299 270.97C82.8318 271.341 82.8416 271.605 83.0203 271.933C83.4197 272.15 83.8025 272.127 84.2498 272.119C84.3826 272.121 84.3826 272.121 84.5174 272.124C84.8875 272.121 85.1512 272.111 85.4803 271.933C85.6961 271.533 85.6736 271.151 85.6658 270.703C85.6678 270.615 85.6687 270.526 85.6707 270.436C85.6687 270.066 85.658 269.802 85.4803 269.473C85.0799 269.257 84.6971 269.279 84.2498 269.287C84.1619 269.285 84.074 269.284 83.9832 269.282C83.6131 269.284 83.3484 269.295 83.0203 269.473ZM90.8328 269.473C90.616 269.873 90.6385 270.256 90.6463 270.703C90.6453 270.791 90.6434 270.879 90.6424 270.97C90.6443 271.341 90.6541 271.605 90.8328 271.933C91.2322 272.15 91.615 272.127 92.0623 272.119C92.1951 272.121 92.1951 272.121 92.3299 272.124C92.7 272.121 92.9637 272.111 93.2928 271.933C93.5086 271.533 93.4861 271.151 93.4783 270.703C93.4803 270.615 93.4812 270.526 93.4832 270.436C93.4812 270.066 93.4705 269.802 93.2928 269.473C92.8924 269.257 92.5096 269.279 92.0623 269.287C91.9744 269.285 91.8865 269.284 91.7957 269.282C91.4256 269.284 91.1609 269.295 90.8328 269.473ZM98.6453 269.473C98.4285 269.873 98.451 270.256 98.4588 270.703C98.4578 270.791 98.4559 270.879 98.4549 270.97C98.4568 271.341 98.4666 271.605 98.6453 271.933C99.0447 272.15 99.4275 272.127 99.8748 272.119C100.008 272.121 100.008 272.121 100.142 272.124C100.512 272.121 100.776 272.111 101.105 271.933C101.321 271.533 101.299 271.151 101.291 270.703C101.293 270.615 101.294 270.526 101.296 270.436C101.294 270.066 101.283 269.802 101.105 269.473C100.705 269.257 100.322 269.279 99.8748 269.287C99.7869 269.285 99.699 269.284 99.6082 269.282C99.2381 269.284 98.9734 269.295 98.6453 269.473ZM106.458 269.473C106.241 269.873 106.263 270.256 106.271 270.703C106.27 270.791 106.268 270.879 106.267 270.97C106.269 271.341 106.279 271.605 106.458 271.933C106.857 272.15 107.24 272.127 107.687 272.119C107.82 272.121 107.82 272.121 107.955 272.124C108.325 272.121 108.589 272.111 108.918 271.933C109.134 271.533 109.111 271.151 109.103 270.703C109.105 270.615 109.106 270.526 109.108 270.436C109.106 270.066 109.096 269.802 108.918 269.473C108.517 269.257 108.135 269.279 107.687 269.287C107.599 269.285 107.512 269.284 107.421 269.282C107.051 269.284 106.786 269.295 106.458 269.473ZM114.27 269.473C114.054 269.873 114.076 270.256 114.084 270.703C114.083 270.791 114.081 270.879 114.08 270.97C114.082 271.341 114.092 271.605 114.27 271.933C114.67 272.15 115.053 272.127 115.5 272.119C115.633 272.121 115.633 272.121 115.767 272.124C116.137 272.121 116.401 272.111 116.73 271.933C116.946 271.533 116.924 271.151 116.916 270.703C116.918 270.615 116.919 270.526 116.921 270.436C116.919 270.066 116.908 269.802 116.73 269.473C116.33 269.257 115.947 269.279 115.5 269.287C115.412 269.285 115.324 269.284 115.233 269.282C114.863 269.284 114.598 269.295 114.27 269.473ZM122.083 269.473C121.866 269.873 121.888 270.256 121.896 270.703C121.895 270.791 121.893 270.879 121.892 270.97C121.894 271.341 121.904 271.605 122.083 271.933C122.482 272.15 122.865 272.127 123.312 272.119C123.445 272.121 123.445 272.121 123.58 272.124C123.95 272.121 124.214 272.111 124.543 271.933C124.759 271.533 124.736 271.151 124.728 270.703C124.73 270.615 124.731 270.526 124.733 270.436C124.731 270.066 124.721 269.802 124.543 269.473C124.142 269.257 123.76 269.279 123.312 269.287C123.224 269.285 123.137 269.284 123.046 269.282C122.676 269.284 122.411 269.295 122.083 269.473ZM129.895 269.473C129.679 269.873 129.701 270.256 129.709 270.703C129.708 270.791 129.706 270.879 129.705 270.97C129.707 271.341 129.717 271.605 129.895 271.933C130.295 272.15 130.678 272.127 131.125 272.119C131.258 272.121 131.258 272.121 131.392 272.124C131.762 272.121 132.026 272.111 132.355 271.933C132.571 271.533 132.549 271.151 132.541 270.703C132.543 270.615 132.544 270.526 132.546 270.436C132.544 270.066 132.533 269.802 132.355 269.473C131.955 269.257 131.572 269.279 131.125 269.287C131.037 269.285 130.949 269.284 130.858 269.282C130.488 269.284 130.223 269.295 129.895 269.473ZM137.708 269.473C137.491 269.873 137.513 270.256 137.521 270.703C137.52 270.791 137.518 270.879 137.517 270.97C137.519 271.341 137.529 271.605 137.708 271.933C138.107 272.15 138.49 272.127 138.937 272.119C139.07 272.121 139.07 272.121 139.205 272.124C139.575 272.121 139.839 272.111 140.168 271.933C140.384 271.533 140.361 271.151 140.353 270.703C140.355 270.615 140.356 270.526 140.358 270.436C140.356 270.066 140.346 269.802 140.168 269.473C139.767 269.257 139.385 269.279 138.937 269.287C138.849 269.285 138.762 269.284 138.671 269.282C138.301 269.284 138.036 269.295 137.708 269.473ZM145.52 269.473C145.304 269.873 145.326 270.256 145.334 270.703C145.333 270.791 145.331 270.879 145.33 270.97C145.332 271.341 145.342 271.605 145.52 271.933C145.92 272.15 146.303 272.127 146.75 272.119C146.883 272.121 146.883 272.121 147.017 272.124C147.387 272.121 147.651 272.111 147.98 271.933C148.196 271.533 148.174 271.151 148.166 270.703C148.168 270.615 148.169 270.526 148.171 270.436C148.169 270.066 148.158 269.802 147.98 269.473C147.58 269.257 147.197 269.279 146.75 269.287C146.662 269.285 146.574 269.284 146.483 269.282C146.113 269.284 145.848 269.295 145.52 269.473ZM153.333 269.473C153.116 269.873 153.138 270.256 153.146 270.703C153.145 270.791 153.143 270.879 153.142 270.97C153.144 271.341 153.154 271.605 153.333 271.933C153.732 272.15 154.115 272.127 154.562 272.119C154.695 272.121 154.695 272.121 154.83 272.124C155.2 272.121 155.464 272.111 155.793 271.933C156.009 271.533 155.986 271.151 155.978 270.703C155.98 270.615 155.981 270.526 155.983 270.436C155.981 270.066 155.971 269.802 155.793 269.473C155.392 269.257 155.01 269.279 154.562 269.287C154.474 269.285 154.387 269.284 154.296 269.282C153.926 269.284 153.661 269.295 153.333 269.473ZM73.2547 277.285C73.0379 277.686 73.0603 278.068 73.0682 278.516C73.0672 278.604 73.0652 278.692 73.0643 278.782C73.0662 279.153 73.076 279.417 73.2547 279.745C73.6541 279.962 74.0369 279.94 74.4842 279.932C74.617 279.934 74.617 279.934 74.7518 279.937C75.1219 279.934 75.3855 279.924 75.7146 279.745C75.9305 279.346 75.908 278.963 75.9002 278.516C75.9021 278.428 75.9031 278.339 75.9051 278.248C75.9031 277.878 75.8924 277.614 75.7146 277.285C75.3143 277.069 74.9314 277.092 74.4842 277.1C74.3963 277.098 74.3084 277.097 74.2176 277.095C73.8475 277.097 73.5828 277.108 73.2547 277.285ZM81.0672 277.285C80.8504 277.686 80.8728 278.068 80.8807 278.516C80.8797 278.604 80.8777 278.692 80.8768 278.782C80.8787 279.153 80.8885 279.417 81.0672 279.745C81.4666 279.962 81.8494 279.94 82.2967 279.932C82.4295 279.934 82.4295 279.934 82.5643 279.937C82.9344 279.934 83.198 279.924 83.5271 279.745C83.743 279.346 83.7205 278.963 83.7127 278.516C83.7146 278.428 83.7156 278.339 83.7176 278.248C83.7156 277.878 83.7049 277.614 83.5271 277.285C83.1268 277.069 82.7439 277.092 82.2967 277.1C82.2088 277.098 82.1209 277.097 82.0301 277.095C81.66 277.097 81.3953 277.108 81.0672 277.285ZM88.8865 277.333C88.7186 277.573 88.6922 277.7 88.6902 277.99C88.6902 278.076 88.6893 278.161 88.6893 278.248C88.6902 278.337 88.6922 278.425 88.6932 278.516C88.6922 278.604 88.6902 278.692 88.6893 278.782C88.6893 278.867 88.6902 278.953 88.6902 279.04C88.6912 279.118 88.6912 279.195 88.6912 279.275C88.7644 279.59 88.8728 279.689 89.1326 279.883C89.4344 279.921 89.7019 279.936 90.0037 279.932C90.1375 279.933 90.1375 279.933 90.2742 279.934C90.576 279.935 90.8777 279.934 91.1795 279.933C91.3963 279.933 91.6141 279.934 91.8318 279.935C92.4314 279.936 93.0311 279.935 93.6307 279.934C94.2107 279.933 94.7898 279.934 95.3699 279.935C96.6287 279.938 97.8885 279.937 99.1473 279.936C100.25 279.935 101.351 279.935 102.453 279.935C102.526 279.935 102.599 279.935 102.675 279.935C102.971 279.936 103.267 279.936 103.564 279.936C106.346 279.937 109.128 279.936 111.91 279.934C114.383 279.932 116.855 279.932 119.329 279.934C122.105 279.936 124.883 279.937 127.659 279.936C127.955 279.936 128.251 279.936 128.547 279.935C128.62 279.935 128.692 279.935 128.767 279.935C129.869 279.935 130.971 279.935 132.072 279.936C133.324 279.938 134.576 279.937 135.828 279.935C136.467 279.934 137.106 279.934 137.746 279.935C138.33 279.936 138.915 279.935 139.499 279.933C139.712 279.933 139.924 279.933 140.136 279.934C140.423 279.935 140.71 279.934 140.997 279.932C141.122 279.934 141.122 279.934 141.25 279.935C141.609 279.93 141.822 279.917 142.114 279.698C142.282 279.458 142.308 279.331 142.309 279.04C142.31 278.913 142.31 278.913 142.311 278.782C142.309 278.694 142.308 278.607 142.306 278.516C142.308 278.428 142.309 278.339 142.311 278.248C142.31 278.163 142.31 278.078 142.309 277.99C142.309 277.875 142.309 277.875 142.308 277.757C142.235 277.442 142.127 277.343 141.867 277.149C141.565 277.11 141.299 277.096 140.997 277.1C140.862 277.099 140.862 277.099 140.725 277.098C140.425 277.096 140.123 277.098 139.821 277.099C139.603 277.099 139.386 277.098 139.168 277.097C138.568 277.096 137.969 277.096 137.369 277.098C136.79 277.098 136.21 277.097 135.63 277.096C134.371 277.094 133.112 277.094 131.852 277.096C130.751 277.097 129.648 277.097 128.547 277.096C128.473 277.096 128.4 277.096 128.325 277.096C128.029 277.096 127.732 277.096 127.436 277.096C124.654 277.095 121.872 277.096 119.091 277.098C116.617 277.1 114.144 277.1 111.672 277.098C108.894 277.096 106.118 277.095 103.341 277.096C103.045 277.096 102.749 277.096 102.453 277.096C102.381 277.096 102.307 277.096 102.232 277.096C101.132 277.097 100.03 277.096 98.9285 277.095C97.6766 277.094 96.4246 277.094 95.1727 277.097C94.533 277.098 93.8934 277.098 93.2547 277.097C92.6697 277.096 92.0857 277.096 91.5008 277.098C91.2889 277.099 91.0769 277.099 90.8641 277.098C90.5769 277.096 90.2908 277.098 90.0037 277.1C89.8777 277.098 89.8777 277.098 89.7508 277.097C89.3914 277.101 89.1785 277.114 88.8865 277.333ZM147.473 277.285C147.257 277.686 147.279 278.068 147.287 278.516C147.286 278.604 147.284 278.692 147.283 278.782C147.285 279.153 147.295 279.417 147.473 279.745C147.873 279.962 148.256 279.94 148.703 279.932C148.836 279.934 148.836 279.934 148.971 279.937C149.341 279.934 149.604 279.924 149.933 279.745C150.149 279.346 150.127 278.963 150.119 278.516C150.121 278.428 150.122 278.339 150.124 278.248C150.122 277.878 150.111 277.614 149.933 277.285C149.533 277.069 149.15 277.092 148.703 277.1C148.615 277.098 148.527 277.097 148.436 277.095C148.066 277.097 147.802 277.108 147.473 277.285ZM155.286 277.285C155.069 277.686 155.092 278.068 155.099 278.516C155.098 278.604 155.096 278.692 155.096 278.782C155.097 279.153 155.107 279.417 155.286 279.745C155.685 279.962 156.068 279.94 156.515 279.932C156.648 279.934 156.648 279.934 156.783 279.937C157.153 279.934 157.417 279.924 157.746 279.745C157.962 279.346 157.939 278.963 157.931 278.516C157.933 278.428 157.934 278.339 157.936 278.248C157.934 277.878 157.924 277.614 157.746 277.285C157.346 277.069 156.963 277.092 156.515 277.1C156.428 277.098 156.34 277.097 156.249 277.095C155.879 277.097 155.614 277.108 155.286 277.285Z" fill="#F3F4F6"/>
</g>
<g filter="url(#filter3_d_195_240)">
<path d="M73.8374 197.838C73.9009 197.838 73.9653 197.838 74.0307 197.838C74.2456 197.838 74.4604 197.838 74.6762 197.838C74.8305 197.837 74.9858 197.837 75.1411 197.837C75.5688 197.836 75.9966 197.835 76.4243 197.835C76.8852 197.835 77.3462 197.834 77.8061 197.833C78.9194 197.831 80.0327 197.83 81.146 197.829C81.6704 197.828 82.1938 197.828 82.7182 197.827C84.4595 197.826 86.2016 197.824 87.9428 197.823C88.395 197.823 88.8471 197.823 89.2993 197.823C89.4673 197.823 89.4673 197.823 89.6401 197.823C91.4604 197.822 93.2807 197.819 95.102 197.816C96.9702 197.813 98.8384 197.811 100.707 197.811C101.756 197.811 102.806 197.81 103.856 197.807C104.749 197.805 105.643 197.804 106.537 197.805C106.993 197.806 107.449 197.805 107.904 197.803C108.322 197.802 108.74 197.802 109.157 197.803C109.308 197.804 109.458 197.803 109.61 197.802C111.03 197.792 111.03 197.792 111.691 198.242C112.15 198.818 112.194 199.274 112.193 199.988C112.193 200.078 112.193 200.168 112.194 200.26C112.194 200.566 112.194 200.871 112.194 201.175C112.195 201.395 112.195 201.615 112.195 201.835C112.196 202.44 112.197 203.046 112.197 203.652C112.197 204.237 112.198 204.823 112.199 205.408C112.201 206.977 112.202 208.547 112.203 210.116C112.203 210.858 112.204 211.6 112.204 212.341C112.206 214.881 112.207 217.422 112.207 219.961C112.207 220.121 112.208 220.28 112.208 220.439C112.208 220.518 112.208 220.597 112.208 220.679C112.208 221.08 112.208 221.48 112.208 221.881C112.208 221.961 112.208 222.041 112.208 222.122C112.209 224.701 112.211 227.28 112.214 229.858C112.218 232.584 112.22 235.309 112.22 238.035C112.22 238.334 112.22 238.633 112.22 238.932C112.22 239.005 112.22 239.08 112.22 239.156C112.221 240.341 112.222 241.528 112.224 242.713C112.226 243.905 112.227 245.097 112.226 246.289C112.225 246.935 112.226 247.581 112.228 248.226C112.229 248.818 112.229 249.409 112.228 250C112.227 250.213 112.228 250.427 112.229 250.641C112.231 250.932 112.23 251.223 112.228 251.513C112.229 251.597 112.23 251.68 112.231 251.766C112.224 252.323 112.112 252.761 111.789 253.222C111.241 253.66 110.81 253.726 110.128 253.727C110.049 253.727 109.969 253.728 109.887 253.728C109.624 253.73 109.36 253.73 109.096 253.731C108.913 253.731 108.729 253.732 108.545 253.732C108.161 253.734 107.775 253.734 107.39 253.734C106.898 253.735 106.406 253.737 105.914 253.74C105.534 253.742 105.154 253.743 104.775 253.743C104.593 253.743 104.412 253.744 104.231 253.745C103.976 253.747 103.721 253.747 103.466 253.746C103.356 253.747 103.356 253.747 103.243 253.749C102.584 253.744 101.984 253.605 101.45 253.211C101.252 252.943 101.189 252.784 101.102 252.472C101.041 252.244 101.041 252.244 100.949 252.05C100.676 251.911 100.676 251.911 100.363 251.855C99.7163 251.519 99.5102 251.054 99.2886 250.39C99.103 248.793 99.06 247.2 99.9721 245.8C100.493 245.157 101.219 244.995 102.011 244.882C102.291 244.854 102.572 244.832 102.853 244.812C103.041 244.797 103.23 244.783 103.418 244.768C103.51 244.761 103.602 244.755 103.697 244.748C104.702 244.677 104.702 244.677 105.692 244.501C105.789 244.479 105.885 244.458 105.985 244.435C106.273 244.315 106.298 244.222 106.417 243.945C106.514 243.913 106.611 243.88 106.71 243.847C107.045 242.981 107.047 242.047 107.042 241.131C107.043 240.997 107.043 240.861 107.043 240.726C107.044 240.445 107.043 240.163 107.042 239.881C107.041 239.525 107.041 239.169 107.043 238.811C107.044 238.533 107.043 238.254 107.043 237.975C107.042 237.781 107.043 237.587 107.044 237.392C107.039 236.609 107.012 235.793 106.71 235.058C106.516 234.942 106.516 234.942 106.32 234.863C106.288 234.766 106.255 234.67 106.222 234.57C105.443 234.255 104.581 234.223 103.75 234.179C100.857 233.995 100.857 233.995 100.109 233.241C99.2895 232.265 99.1596 231.007 99.1909 229.785C99.1938 229.677 99.1968 229.569 99.1997 229.458C99.2407 228.63 99.3813 228.007 99.9057 227.356C100.167 227.148 100.167 227.148 100.501 227.05C100.834 226.91 100.937 226.752 101.079 226.422C101.141 226.243 101.2 226.061 101.254 225.879C101.284 225.784 101.313 225.689 101.343 225.59C101.591 224.691 101.62 223.725 101.242 222.851C100.979 222.532 100.739 222.326 100.357 222.168C99.8442 221.925 99.6294 221.593 99.3989 221.088C99.1802 220.634 98.8794 220.446 98.4292 220.227C97.9477 219.98 97.7651 219.719 97.5307 219.238C97.3237 218.845 97.2319 218.686 96.811 218.53C96.6606 218.505 96.5102 218.48 96.3589 218.457C96.2583 218.433 96.1567 218.41 96.0522 218.385C95.2397 218.22 94.7036 218.299 93.9429 218.627C93.6069 218.757 93.2993 218.809 92.9409 218.847C92.9175 218.932 92.893 219.017 92.8677 219.104C92.6714 219.636 92.4702 219.986 91.9585 220.246C90.685 220.825 88.9751 220.753 87.6675 220.312C87.0063 220.057 86.4751 219.76 86.105 219.14C85.8452 218.424 85.7544 217.699 85.7026 216.943C85.688 216.755 85.6733 216.567 85.6587 216.379C85.6518 216.287 85.645 216.195 85.6382 216.1C85.5678 215.095 85.5678 215.095 85.3911 214.105C85.3696 214.008 85.3481 213.912 85.3257 213.812C85.2055 213.524 85.1128 213.499 84.8354 213.379C84.8032 213.282 84.771 213.185 84.7378 213.086C83.8725 212.752 82.937 212.749 82.022 212.751C81.8872 212.751 81.7514 212.75 81.6167 212.749C81.3354 212.749 81.0542 212.749 80.772 212.75C80.4155 212.751 80.0591 212.749 79.7016 212.746C79.4233 212.744 79.145 212.744 78.8657 212.745C78.6714 212.745 78.477 212.743 78.2827 212.741C77.437 212.748 76.4946 212.811 75.7729 213.304C75.1128 214 75.1167 215.141 75.0698 216.034C74.8872 218.861 74.8872 218.861 74.0932 219.726C73.8432 219.94 73.8432 219.94 73.605 220.019C73.0884 219.916 72.768 219.538 72.478 219.117C72.0864 218.375 72.0307 217.437 71.9868 216.609C71.9809 216.502 71.9809 216.502 71.9751 216.392C71.9341 215.602 71.9292 214.813 71.9282 214.023C71.9272 213.86 71.9262 213.698 71.9262 213.535C71.9243 213.008 71.9233 212.483 71.9223 211.957C71.9214 211.774 71.9214 211.591 71.9204 211.409C71.9194 210.553 71.9175 209.697 71.9165 208.84C71.9155 207.856 71.9136 206.872 71.9096 205.887C71.9067 205.123 71.9048 204.358 71.9048 203.593C71.9048 203.138 71.9038 202.683 71.9009 202.227C71.8989 201.8 71.8979 201.373 71.8989 200.946C71.8989 200.79 71.8989 200.632 71.897 200.476C71.8852 198.994 71.8852 198.994 72.3354 198.339C72.8384 197.94 73.2055 197.839 73.8374 197.838Z" fill="#F3F4F6"/>
</g>
<g filter="url(#filter4_d_195_240)">
<path d="M62.2242 287.683C62.2994 287.683 62.3746 287.683 62.4527 287.682C62.7076 287.682 62.9615 287.682 63.2164 287.682C63.4009 287.682 63.5855 287.682 63.7701 287.682C64.2798 287.681 64.7906 287.681 65.3003 287.681C65.855 287.681 66.4087 287.681 66.9625 287.68C68.0621 287.679 69.1626 287.679 70.2623 287.678C71.1773 287.678 72.0923 287.678 73.0074 287.677C73.0728 287.677 73.1392 287.677 73.2066 287.677C73.4742 287.677 73.7427 287.677 74.0103 287.677C77.2613 287.674 80.5123 287.673 83.7632 287.672C84.8179 287.672 85.8716 287.672 86.9253 287.671C86.9996 287.671 87.0738 287.671 87.1509 287.671C87.4517 287.671 87.7525 287.671 88.0533 287.671C93.1968 287.669 98.3414 287.668 103.485 287.667C103.889 287.667 104.294 287.667 104.698 287.667C104.778 287.667 104.858 287.667 104.94 287.667C105.752 287.667 106.565 287.667 107.377 287.666C107.54 287.666 107.703 287.666 107.866 287.666C113.097 287.666 118.328 287.663 123.559 287.66C127.318 287.658 131.076 287.656 134.835 287.655C134.912 287.655 134.989 287.655 135.068 287.655C136.764 287.654 138.46 287.654 140.157 287.654C140.838 287.654 141.521 287.654 142.204 287.654C142.316 287.654 142.316 287.654 142.43 287.654C144.837 287.654 147.245 287.652 149.652 287.651C152.076 287.649 154.501 287.648 156.924 287.649C157.259 287.65 157.594 287.65 157.928 287.65C158.027 287.65 158.027 287.65 158.127 287.65C159.231 287.65 160.335 287.649 161.438 287.647C162.397 287.646 163.356 287.646 164.315 287.647C164.863 287.648 165.41 287.648 165.957 287.646C166.454 287.645 166.952 287.645 167.449 287.647C167.627 287.647 167.807 287.647 167.986 287.646C168.229 287.644 168.472 287.645 168.714 287.647C168.784 287.646 168.853 287.645 168.924 287.644C169.446 287.651 169.858 287.796 170.285 288.086C170.829 288.769 170.797 289.365 170.804 290.204C170.808 290.374 170.808 290.374 170.813 290.547C170.818 291.24 170.765 291.7 170.382 292.285C169.85 292.709 169.437 292.788 168.776 292.786C168.701 292.786 168.626 292.786 168.547 292.786C168.293 292.787 168.038 292.787 167.784 292.786C167.599 292.786 167.415 292.787 167.23 292.787C166.72 292.788 166.21 292.788 165.699 292.788C165.145 292.788 164.591 292.788 164.038 292.789C162.938 292.79 161.837 292.79 160.738 292.79C159.823 292.79 158.908 292.791 157.993 292.792C157.927 292.792 157.861 292.792 157.793 292.792C157.526 292.792 157.257 292.792 156.99 292.792C153.739 292.794 150.488 292.795 147.237 292.796C146.182 292.797 145.128 292.797 144.075 292.797C143.963 292.797 143.963 292.797 143.849 292.797C143.548 292.797 143.248 292.798 142.947 292.798C137.803 292.8 132.659 292.801 127.515 292.802C127.111 292.802 126.707 292.802 126.302 292.802C126.222 292.802 126.142 292.802 126.06 292.802C125.248 292.802 124.435 292.802 123.624 292.802C123.46 292.802 123.297 292.802 123.134 292.802C117.903 292.803 112.672 292.805 107.441 292.809C103.682 292.811 99.9244 292.813 96.1656 292.814C96.0884 292.814 96.0113 292.814 95.9322 292.814C94.2359 292.814 92.5396 292.814 90.8433 292.815C90.1617 292.815 89.4791 292.815 88.7964 292.815C88.7222 292.815 88.647 292.815 88.5699 292.815C86.1626 292.815 83.7554 292.816 81.3482 292.818C78.9244 292.819 76.4996 292.82 74.0757 292.819C73.7408 292.819 73.4058 292.819 73.0708 292.819C73.0054 292.819 72.94 292.819 72.8726 292.819C71.7691 292.819 70.6656 292.82 69.5621 292.821C68.6031 292.823 67.6441 292.823 66.6851 292.821C66.1373 292.821 65.5904 292.821 65.0435 292.822C64.5464 292.824 64.0484 292.824 63.5513 292.822C63.3726 292.822 63.1929 292.822 63.0142 292.823C62.771 292.824 62.5279 292.823 62.2857 292.822C62.2164 292.823 62.147 292.824 62.0757 292.825C61.5542 292.818 61.1421 292.673 60.7144 292.383C60.1714 291.699 60.2027 291.104 60.1958 290.265C60.1929 290.151 60.19 290.038 60.1871 289.922C60.1822 289.229 60.2349 288.769 60.6167 288.184C61.15 287.76 61.563 287.681 62.2242 287.683Z" fill="#F3F4F6"/>
</g>
<g filter="url(#filter5_d_195_240)">
<path d="M80.3193 215.393C80.4287 215.391 80.5371 215.388 80.6494 215.386C81.4707 215.383 82.2939 215.458 82.9228 216.037C83.7109 217.416 84.1953 218.801 84.4912 220.36C84.5068 220.438 84.5225 220.516 84.5381 220.597C84.5518 220.666 84.5645 220.737 84.5781 220.809C84.6709 221.087 84.8535 221.233 85.0977 221.383C85.375 221.507 85.6543 221.585 85.9463 221.667C86.6289 221.86 87.1377 222.183 87.6103 222.712C88.2607 223.294 89.3193 223.283 90.1396 223.291C90.2305 223.292 90.3213 223.294 90.415 223.296C91.0107 223.291 91.4727 223.199 91.9648 222.852C92.1318 222.675 92.1318 222.675 92.2334 222.479C92.7656 221.708 93.708 221.31 94.6025 221.124C95.6328 221.017 96.8086 221.408 97.6328 222.024C98.3223 222.748 98.6699 223.922 98.7031 224.903C98.6182 225.829 98.1602 226.891 97.4394 227.504C97.3809 227.542 97.3232 227.58 97.2627 227.619C96.8564 227.892 96.7119 228.154 96.5547 228.614C96.501 228.963 96.499 229.304 96.5059 229.657C96.5068 229.751 96.5088 229.846 96.5098 229.944C96.5449 231.128 96.7646 231.911 97.6172 232.773C98.0205 233.23 98.1602 233.777 98.3125 234.357C98.4228 234.709 98.5459 234.889 98.8008 235.157C99.0605 235.267 99.0605 235.267 99.3535 235.315C99.5156 235.349 99.5156 235.349 99.6807 235.383C99.793 235.405 99.9053 235.427 100.021 235.45C100.902 235.623 101.695 235.852 102.512 236.231C102.579 236.261 102.646 236.292 102.716 236.325C102.878 236.401 103.036 236.484 103.195 236.566C103.298 236.619 103.4 236.67 103.507 236.724C104.035 237.089 104.245 237.567 104.367 238.184C104.398 238.599 104.403 239.012 104.403 239.428C104.406 239.538 104.408 239.647 104.411 239.759C104.414 240.567 104.329 241.403 103.769 242.029C102.457 242.771 101.173 243.24 99.6894 243.505C99.0029 243.633 99.0029 243.633 98.4912 244.073C98.3154 244.384 98.2168 244.702 98.1357 245.05C97.9492 245.71 97.6367 246.205 97.1406 246.68C97.0762 246.68 97.0117 246.68 96.9453 246.68C96.8984 246.85 96.8516 247.021 96.8047 247.192C96.7793 247.288 96.7529 247.382 96.7256 247.481C96.7021 247.571 96.6777 247.661 96.6523 247.754C96.6348 247.814 96.6182 247.874 96.6006 247.936C96.5098 248.349 96.5283 248.773 96.5244 249.194C96.5215 249.289 96.5186 249.382 96.5156 249.48C96.5098 250.096 96.582 250.565 96.9453 251.075C97.1367 251.271 97.1367 251.271 97.3486 251.398C97.623 251.579 97.7324 251.669 97.9219 251.954C97.9131 252.288 97.8369 252.426 97.623 252.686C96.3525 253.766 95.0225 253.753 93.4287 253.746C93.2217 253.746 93.0137 253.746 92.8066 253.747C92.2461 253.747 91.6855 253.746 91.125 253.744C90.5361 253.743 89.9482 253.743 89.3603 253.743C88.373 253.742 87.3867 253.741 86.3994 253.739C85.1338 253.736 83.8682 253.735 82.6025 253.734C81.5127 253.734 80.4228 253.733 79.332 253.731C78.9824 253.731 78.6338 253.731 78.2842 253.73C77.7344 253.73 77.1846 253.729 76.6348 253.727C76.4336 253.727 76.2324 253.727 76.0303 253.726C75.7549 253.726 75.4795 253.725 75.2041 253.725C75.0859 253.725 75.0859 253.725 74.9648 253.725C73.1943 253.716 73.1943 253.716 72.5312 253.125C72.0234 252.568 71.959 252 71.9453 251.27C71.9404 251.157 71.9355 251.044 71.9307 250.928C71.9082 250.098 71.9307 249.406 72.4639 248.743C72.8594 248.43 73.125 248.233 73.6436 248.258C74.2373 248.345 74.7979 248.553 75.3633 248.748C75.4746 248.786 75.585 248.822 75.7002 248.86C76.4316 249.111 77.0264 249.402 77.5664 249.963C78.3096 250.675 80.1484 250.437 81.084 250.417C82.3799 250.396 82.3799 250.396 83.4561 249.762C83.5078 249.702 83.5586 249.642 83.6103 249.581C84.1973 248.934 85.3418 248.734 86.1562 248.559C86.7949 248.418 86.7949 248.418 87.2676 247.999C87.3633 247.812 87.4541 247.623 87.54 247.431C87.7305 247.04 87.9912 246.816 88.3516 246.582C88.4131 246.563 88.4756 246.543 88.5391 246.523C88.7861 246.445 88.9365 246.363 89.1328 246.192C89.3633 245.728 89.5 245.241 89.6396 244.745C90.1992 242.828 90.1992 242.828 90.7969 242.453C91.2715 242.037 91.2646 241.153 91.3066 240.549C91.3164 240.177 91.3164 239.807 91.3115 239.435C91.3125 239.31 91.3125 239.186 91.3125 239.057C91.3086 238.399 91.2676 237.78 91.1279 237.136C91.0859 236.915 91.0859 236.915 91.0859 236.524C91.0273 236.497 90.9687 236.47 90.9082 236.442C90.0518 235.984 89.8525 235.006 89.585 234.149C89.54 234.013 89.4961 233.876 89.4512 233.74C89.1328 232.755 89.1328 232.755 89.1328 232.52C89.0478 232.511 88.9639 232.503 88.876 232.495C88.2266 232.351 87.8574 231.957 87.4727 231.446C87.2822 231.136 87.2773 231.049 87.2773 230.665C87.1846 230.644 87.1846 230.644 87.0898 230.623C86.415 230.468 85.7598 230.268 85.1045 230.047C85.0225 230.021 84.9404 229.995 84.8564 229.967C84.1777 229.733 83.5811 229.416 83.1758 228.809C82.2578 228.494 81.3037 228.47 80.3437 228.479C80.2217 228.478 80.0996 228.477 79.9736 228.475C78.5674 228.446 78.5674 228.446 77.3291 228.972C77.2441 229.087 77.1602 229.204 77.0781 229.321C76.7832 229.653 76.3643 229.767 75.9531 229.911C75.8057 229.962 75.6582 230.015 75.5107 230.069C75.2402 230.167 74.9697 230.264 74.6982 230.359C74.6103 230.39 74.5234 230.422 74.4326 230.455C73.8223 230.662 73.3672 230.72 72.7568 230.451C72.2793 230.076 72.0586 229.589 71.9453 229.004C71.916 228.666 71.9131 228.331 71.9121 227.993C71.9121 227.896 71.9111 227.8 71.9102 227.701C71.9092 227.498 71.9092 227.295 71.9092 227.092C71.9092 226.785 71.9053 226.477 71.9014 226.169C71.8887 223.957 71.8887 223.957 72.4736 223.278C72.6836 223.09 72.916 222.953 73.1602 222.815C73.3965 222.665 73.5391 222.524 73.7275 222.321C74.1436 221.891 74.6123 221.716 75.1631 221.51C75.5947 221.341 75.8525 221.162 76.1445 220.801C76.249 220.495 76.2969 220.185 76.3457 219.867C76.3779 219.69 76.4102 219.513 76.4424 219.336C76.458 219.251 76.4736 219.167 76.4902 219.08C76.6494 218.26 76.9775 217.536 77.3525 216.797C77.3887 216.725 77.4238 216.654 77.4609 216.581C77.7607 216.014 78.0869 215.746 78.6914 215.505C79.2354 215.398 79.7656 215.394 80.3193 215.393Z" fill="#F3F4F6"/>
</g>
<g filter="url(#filter6_d_195_240)">
<path d="M75.7915 182.212C75.9428 182.212 76.0942 182.211 76.2456 182.211C76.6596 182.21 77.0727 182.21 77.4868 182.209C77.934 182.209 78.3813 182.208 78.8286 182.207C79.9067 182.205 80.9838 182.204 82.062 182.203C82.5708 182.203 83.0786 182.202 83.5864 182.202C85.2749 182.2 86.9643 182.199 88.6528 182.199C89.0903 182.199 89.5288 182.198 89.9663 182.198C90.0747 182.198 90.1831 182.198 90.2954 182.198C92.06 182.197 93.8237 182.195 95.5883 182.191C97.3999 182.188 99.2124 182.186 101.024 182.186C102.041 182.186 103.058 182.185 104.076 182.182C104.941 182.18 105.806 182.179 106.672 182.18C107.114 182.181 107.555 182.181 107.997 182.179C108.401 182.177 108.805 182.177 109.209 182.179C109.356 182.179 109.501 182.178 109.648 182.177C110.43 182.171 111.031 182.172 111.691 182.617C112.028 183.039 112.191 183.382 112.194 183.919C112.195 184.048 112.195 184.048 112.196 184.181C112.197 184.276 112.197 184.369 112.197 184.467C112.198 184.567 112.198 184.666 112.199 184.77C112.201 185.1 112.202 185.431 112.203 185.762C112.204 185.874 112.204 185.988 112.205 186.104C112.207 186.702 112.207 187.3 112.208 187.898C112.209 188.515 112.213 189.132 112.217 189.749C112.219 190.225 112.22 190.699 112.22 191.174C112.221 191.402 112.222 191.629 112.224 191.857C112.226 192.176 112.226 192.494 112.225 192.814C112.227 192.953 112.227 192.953 112.229 193.097C112.225 193.682 112.135 194.146 111.789 194.629C111.287 195.029 110.919 195.129 110.288 195.13C110.224 195.13 110.16 195.131 110.094 195.131C109.879 195.132 109.665 195.131 109.449 195.131C109.293 195.132 109.139 195.132 108.984 195.133C108.556 195.134 108.128 195.134 107.701 195.134C107.24 195.135 106.779 195.136 106.319 195.136C105.206 195.138 104.092 195.139 102.979 195.14C102.455 195.141 101.931 195.141 101.407 195.142C99.6655 195.143 97.9233 195.145 96.1821 195.146C95.7299 195.146 95.2778 195.146 94.8256 195.146C94.7133 195.146 94.601 195.146 94.4848 195.146C92.6645 195.147 90.8442 195.15 89.0229 195.153C87.1547 195.156 85.2866 195.157 83.4174 195.157C82.3686 195.158 81.3188 195.159 80.269 195.161C79.3754 195.163 78.4819 195.164 77.5883 195.163C77.1323 195.163 76.6762 195.163 76.2212 195.165C75.8032 195.167 75.3852 195.166 74.9682 195.165C74.8169 195.165 74.6665 195.165 74.5151 195.166C73.0952 195.177 73.0952 195.177 72.4331 194.727C71.976 194.152 71.9311 193.696 71.9311 192.983C71.9311 192.895 71.9301 192.806 71.9301 192.715C71.9292 192.421 71.9292 192.128 71.9292 191.834C71.9282 191.63 71.9282 191.425 71.9282 191.221C71.9272 190.791 71.9272 190.362 71.9272 189.932C71.9272 189.384 71.9262 188.836 71.9243 188.288C71.9233 187.865 71.9233 187.442 71.9233 187.019C71.9223 186.818 71.9223 186.615 71.9213 186.413C71.9116 183.532 71.9116 183.532 72.4643 182.843C73.3198 182.008 74.6713 182.212 75.7915 182.212ZM77.1606 187.442C76.9438 187.842 76.9672 188.225 76.9741 188.672C76.9731 188.76 76.9712 188.848 76.9702 188.939C76.9721 189.309 76.9829 189.574 77.1606 189.902C77.56 190.118 77.9438 190.096 78.3901 190.088C78.5229 190.09 78.5229 190.09 78.6577 190.092C79.0278 190.09 79.2915 190.079 79.6206 189.902C79.8374 189.502 79.8139 189.119 79.8061 188.672C79.8081 188.583 79.81 188.495 79.811 188.405C79.809 188.034 79.7983 187.771 79.6206 187.442C79.2212 187.225 78.8374 187.248 78.3901 187.256C78.3022 187.254 78.2143 187.253 78.1235 187.251C77.7534 187.253 77.4887 187.264 77.1606 187.442ZM84.9731 187.442C84.7563 187.842 84.7797 188.225 84.7866 188.672C84.7856 188.76 84.7837 188.848 84.7827 188.939C84.7846 189.309 84.7954 189.574 84.9731 189.902C85.3725 190.118 85.7563 190.096 86.2026 190.088C86.3354 190.09 86.3354 190.09 86.4702 190.092C86.8403 190.09 87.104 190.079 87.4331 189.902C87.6499 189.502 87.6264 189.119 87.6186 188.672C87.6206 188.583 87.6225 188.495 87.6235 188.405C87.6215 188.034 87.6108 187.771 87.4331 187.442C87.0337 187.225 86.6499 187.248 86.2026 187.256C86.1147 187.254 86.0268 187.253 85.936 187.251C85.5659 187.253 85.3012 187.264 84.9731 187.442ZM92.7856 187.442C92.5688 187.842 92.5922 188.225 92.5991 188.672C92.5981 188.76 92.5961 188.848 92.5952 188.939C92.5971 189.309 92.6079 189.574 92.7856 189.902C93.185 190.118 93.5688 190.096 94.0151 190.088C94.1479 190.09 94.1479 190.09 94.2827 190.092C94.6528 190.09 94.9165 190.079 95.2456 189.902C95.4624 189.502 95.4389 189.119 95.4311 188.672C95.4331 188.583 95.435 188.495 95.436 188.405C95.434 188.034 95.4233 187.771 95.2456 187.442C94.8461 187.225 94.4624 187.248 94.0151 187.256C93.9272 187.254 93.8393 187.253 93.7485 187.251C93.3784 187.253 93.1137 187.264 92.7856 187.442Z" fill="#F3F4F6"/>
</g>
<g filter="url(#filter7_d_195_240)">
<path d="M80.1607 231.037C80.3667 231.037 80.5728 231.035 80.7778 231.033C83.772 231.02 83.772 231.02 84.5991 231.783C84.7759 231.984 84.9155 232.181 85.0152 232.429C85.1694 232.683 85.3062 232.704 85.5864 232.789C86.146 232.997 86.4712 233.286 86.7886 233.789C86.854 233.955 86.9155 234.122 86.9722 234.289C87.148 234.791 87.4038 234.951 87.8511 235.213C88.3286 235.532 88.4898 236.056 88.6089 236.602C88.9224 238.48 89.1929 241.634 88.2232 243.355C87.9702 243.662 87.648 243.836 87.313 244.044C86.9566 244.343 86.8511 244.705 86.7134 245.14C86.5288 245.556 86.2544 245.736 85.8433 245.914C85.7544 245.948 85.6655 245.981 85.5747 246.014C85.1587 246.194 84.9595 246.337 84.7319 246.729C84.4155 247.264 84.0571 247.471 83.4683 247.657C81.7261 248.077 78.0864 248.345 76.4937 247.397C76.188 247.137 75.9693 246.819 75.7534 246.485C75.523 246.138 75.438 246.136 75.0523 246.027C74.4653 245.825 74.1284 245.545 73.8003 245.02C73.7495 244.885 73.7026 244.748 73.6607 244.611C73.5288 244.189 73.2886 244.069 72.9146 243.86C72.3794 243.548 72.2564 243.075 72.103 242.51C71.9204 241.529 71.9253 240.534 71.9273 239.539C71.9273 239.467 71.9273 239.396 71.9273 239.323C71.9341 236.151 71.9341 236.151 72.5308 235.45C72.7778 235.229 73.0347 235.042 73.312 234.864C73.6431 234.643 73.6685 234.559 73.7944 234.198C74.0269 233.597 74.2271 233.259 74.8257 232.99C74.936 232.945 74.936 232.945 75.0493 232.9C75.4575 232.735 75.6724 232.644 75.8823 232.245C76.2105 231.694 76.5835 231.43 77.188 231.226C78.1616 231.027 79.1704 231.037 80.1607 231.037Z" fill="#F3F4F6"/>
</g>
</g>
<g filter="url(#filter8_d_195_240)">
<path d="M43 243.164L80.8553 131.582M180 228.53L151.158 132.335M151.158 132.335L118.711 20L80.8553 131.582M151.158 132.335L80.8553 131.582M151.158 132.335H180V272.432C180 330.966 75.4474 374.868 43 261.456" stroke="#F3F4F6" stroke-width="10" stroke-linecap="round" stroke-linejoin="round" shape-rendering="crispEdges"/>
</g>
<defs>
<filter id="filter0_d_195_240" x="199.928" y="114.64" width="327.277" height="149" filterUnits="userSpaceOnUse" color-interpolation-filters="sRGB">
<feFlood flood-opacity="0" result="BackgroundImageFix"/>
<feColorMatrix in="SourceAlpha" type="matrix" values="0 0 0 0 0 0 0 0 0 0 0 0 0 0 0 0 0 0 127 0" result="hardAlpha"/>
<feOffset dy="4"/>
<feGaussianBlur stdDeviation="2"/>
<feComposite in2="hardAlpha" operator="out"/>
<feColorMatrix type="matrix" values="0 0 0 0 0 0 0 0 0 0 0 0 0 0 0 0 0 0 0.25 0"/>
<feBlend mode="normal" in2="BackgroundImageFix" result="effect1_dropShadow_195_240"/>
<feBlend mode="normal" in="SourceGraphic" in2="effect1_dropShadow_195_240" result="shape"/>
</filter>
<filter id="filter1_d_195_240" x="110.863" y="182.213" width="52.2178" height="79.5499" filterUnits="userSpaceOnUse" color-interpolation-filters="sRGB">
<feFlood flood-opacity="0" result="BackgroundImageFix"/>
<feColorMatrix in="SourceAlpha" type="matrix" values="0 0 0 0 0 0 0 0 0 0 0 0 0 0 0 0 0 0 127 0" result="hardAlpha"/>
<feOffset dy="4"/>
<feGaussianBlur stdDeviation="2"/>
<feComposite in2="hardAlpha" operator="out"/>
<feColorMatrix type="matrix" values="0 0 0 0 0 0 0 0 0 0 0 0 0 0 0 0 0 0 0.25 0"/>
<feBlend mode="normal" in2="BackgroundImageFix" result="effect1_dropShadow_195_240"/>
<feBlend mode="normal" in="SourceGraphic" in2="effect1_dropShadow_195_240" result="shape"/>
</filter>
<filter id="filter2_d_195_240" x="57.9243" y="264.229" width="115.165" height="28.7842" filterUnits="userSpaceOnUse" color-interpolation-filters="sRGB">
<feFlood flood-opacity="0" result="BackgroundImageFix"/>
<feColorMatrix in="SourceAlpha" type="matrix" values="0 0 0 0 0 0 0 0 0 0 0 0 0 0 0 0 0 0 127 0" result="hardAlpha"/>
<feOffset dy="4"/>
<feGaussianBlur stdDeviation="2"/>
<feComposite in2="hardAlpha" operator="out"/>
<feColorMatrix type="matrix" values="0 0 0 0 0 0 0 0 0 0 0 0 0 0 0 0 0 0 0.25 0"/>
<feBlend mode="normal" in2="BackgroundImageFix" result="effect1_dropShadow_195_240"/>
<feBlend mode="normal" in="SourceGraphic" in2="effect1_dropShadow_195_240" result="shape"/>
</filter>
<filter id="filter3_d_195_240" x="67.8939" y="197.8" width="48.337" height="63.949" filterUnits="userSpaceOnUse" color-interpolation-filters="sRGB">
<feFlood flood-opacity="0" result="BackgroundImageFix"/>
<feColorMatrix in="SourceAlpha" type="matrix" values="0 0 0 0 0 0 0 0 0 0 0 0 0 0 0 0 0 0 127 0" result="hardAlpha"/>
<feOffset dy="4"/>
<feGaussianBlur stdDeviation="2"/>
<feComposite in2="hardAlpha" operator="out"/>
<feColorMatrix type="matrix" values="0 0 0 0 0 0 0 0 0 0 0 0 0 0 0 0 0 0 0.25 0"/>
<feBlend mode="normal" in2="BackgroundImageFix" result="effect1_dropShadow_195_240"/>
<feBlend mode="normal" in="SourceGraphic" in2="effect1_dropShadow_195_240" result="shape"/>
</filter>
<filter id="filter4_d_195_240" x="56.1868" y="287.644" width="118.627" height="13.1816" filterUnits="userSpaceOnUse" color-interpolation-filters="sRGB">
<feFlood flood-opacity="0" result="BackgroundImageFix"/>
<feColorMatrix in="SourceAlpha" type="matrix" values="0 0 0 0 0 0 0 0 0 0 0 0 0 0 0 0 0 0 127 0" result="hardAlpha"/>
<feOffset dy="4"/>
<feGaussianBlur stdDeviation="2"/>
<feComposite in2="hardAlpha" operator="out"/>
<feColorMatrix type="matrix" values="0 0 0 0 0 0 0 0 0 0 0 0 0 0 0 0 0 0 0.25 0"/>
<feBlend mode="normal" in2="BackgroundImageFix" result="effect1_dropShadow_195_240"/>
<feBlend mode="normal" in="SourceGraphic" in2="effect1_dropShadow_195_240" result="shape"/>
</filter>
<filter id="filter5_d_195_240" x="67.8983" y="215.386" width="40.5129" height="46.3608" filterUnits="userSpaceOnUse" color-interpolation-filters="sRGB">
<feFlood flood-opacity="0" result="BackgroundImageFix"/>
<feColorMatrix in="SourceAlpha" type="matrix" values="0 0 0 0 0 0 0 0 0 0 0 0 0 0 0 0 0 0 127 0" result="hardAlpha"/>
<feOffset dy="4"/>
<feGaussianBlur stdDeviation="2"/>
<feComposite in2="hardAlpha" operator="out"/>
<feColorMatrix type="matrix" values="0 0 0 0 0 0 0 0 0 0 0 0 0 0 0 0 0 0 0.25 0"/>
<feBlend mode="normal" in2="BackgroundImageFix" result="effect1_dropShadow_195_240"/>
<feBlend mode="normal" in="SourceGraphic" in2="effect1_dropShadow_195_240" result="shape"/>
</filter>
<filter id="filter6_d_195_240" x="67.9192" y="182.176" width="48.3098" height="20.993" filterUnits="userSpaceOnUse" color-interpolation-filters="sRGB">
<feFlood flood-opacity="0" result="BackgroundImageFix"/>
<feColorMatrix in="SourceAlpha" type="matrix" values="0 0 0 0 0 0 0 0 0 0 0 0 0 0 0 0 0 0 127 0" result="hardAlpha"/>
<feOffset dy="4"/>
<feGaussianBlur stdDeviation="2"/>
<feComposite in2="hardAlpha" operator="out"/>
<feColorMatrix type="matrix" values="0 0 0 0 0 0 0 0 0 0 0 0 0 0 0 0 0 0 0.25 0"/>
<feBlend mode="normal" in2="BackgroundImageFix" result="effect1_dropShadow_195_240"/>
<feBlend mode="normal" in="SourceGraphic" in2="effect1_dropShadow_195_240" result="shape"/>
</filter>
<filter id="filter7_d_195_240" x="67.9268" y="231.03" width="24.9714" height="25.0099" filterUnits="userSpaceOnUse" color-interpolation-filters="sRGB">
<feFlood flood-opacity="0" result="BackgroundImageFix"/>
<feColorMatrix in="SourceAlpha" type="matrix" values="0 0 0 0 0 0 0 0 0 0 0 0 0 0 0 0 0 0 127 0" result="hardAlpha"/>
<feOffset dy="4"/>
<feGaussianBlur stdDeviation="2"/>
<feComposite in2="hardAlpha" operator="out"/>
<feColorMatrix type="matrix" values="0 0 0 0 0 0 0 0 0 0 0 0 0 0 0 0 0 0 0.25 0"/>
<feBlend mode="normal" in2="BackgroundImageFix" result="effect1_dropShadow_195_240"/>
<feBlend mode="normal" in="SourceGraphic" in2="effect1_dropShadow_195_240" result="shape"/>
</filter>
<filter id="filter8_d_195_240" x="33.9987" y="15" width="155.003" height="330" filterUnits="userSpaceOnUse" color-interpolation-filters="sRGB">
<feFlood flood-opacity="0" result="BackgroundImageFix"/>
<feColorMatrix in="SourceAlpha" type="matrix" values="0 0 0 0 0 0 0 0 0 0 0 0 0 0 0 0 0 0 127 0" result="hardAlpha"/>
<feOffset dy="4"/>
<feGaussianBlur stdDeviation="2"/>
<feComposite in2="hardAlpha" operator="out"/>
<feColorMatrix type="matrix" values="0 0 0 0 0 0 0 0 0 0 0 0 0 0 0 0 0 0 0.25 0"/>
<feBlend mode="normal" in2="BackgroundImageFix" result="effect1_dropShadow_195_240"/>
<feBlend mode="normal" in="SourceGraphic" in2="effect1_dropShadow_195_240" result="shape"/>
</filter>
<clipPath id="clip0_195_240">
<rect width="125" height="125" fill="white" transform="translate(53 175)"/>
</clipPath>
</defs>
</svg>
