<svg width="238" height="238" viewBox="0 0 238 238" fill="none" xmlns="http://www.w3.org/2000/svg">
<g filter="url(#filter0_d_148_352)">
<circle cx="119" cy="115" r="115" fill="#F9FEFE"/>
</g>
<path d="M80.6667 150.647L101.851 88.6567M157.333 142.517L141.193 89.0752M141.193 89.0752L123.035 26.6667L101.851 88.6567M141.193 89.0752L101.851 88.6567M141.193 89.0752H157.333V166.906C157.333 199.426 98.8246 223.815 80.6667 160.809" stroke="#343A40" stroke-linecap="round" stroke-linejoin="round"/>
<path d="M167.2 42.1945L163.833 45L167.2 47.8054C167.312 47.8969 167.404 48.0096 167.472 48.1371C167.54 48.2645 167.582 48.4041 167.596 48.5478C167.609 48.6915 167.595 48.8365 167.552 48.9744C167.509 49.1124 167.44 49.2405 167.347 49.3514C167.255 49.4623 167.141 49.5539 167.014 49.6207C166.886 49.6876 166.746 49.7285 166.602 49.741C166.458 49.7535 166.313 49.7375 166.176 49.6937C166.038 49.65 165.91 49.5794 165.8 49.4862L161.425 45.8403C161.302 45.7377 161.203 45.6092 161.135 45.464C161.067 45.3187 161.031 45.1603 161.031 45C161.031 44.8396 161.067 44.6812 161.135 44.5359C161.203 44.3907 161.302 44.2622 161.425 44.1596L165.8 40.5138C166.023 40.3308 166.31 40.2435 166.597 40.2709C166.884 40.2982 167.149 40.438 167.334 40.6597C167.519 40.8814 167.608 41.1671 167.583 41.4546C167.558 41.7421 167.42 42.008 167.2 42.1945ZM183.242 44.1596L178.867 40.5138C178.757 40.4205 178.629 40.3499 178.492 40.3062C178.354 40.2624 178.209 40.2464 178.065 40.2589C177.921 40.2714 177.781 40.3123 177.654 40.3792C177.526 40.446 177.412 40.5376 177.32 40.6485C177.227 40.7594 177.158 40.8876 177.115 41.0255C177.073 41.1634 177.058 41.3084 177.071 41.4521C177.085 41.5959 177.127 41.7354 177.195 41.8629C177.263 41.9903 177.355 42.103 177.467 42.1945L180.834 45L177.467 47.8054C177.355 47.8969 177.263 48.0096 177.195 48.1371C177.127 48.2645 177.085 48.4041 177.071 48.5478C177.058 48.6915 177.073 48.8365 177.115 48.9744C177.158 49.1124 177.227 49.2405 177.32 49.3514C177.412 49.4623 177.526 49.5539 177.654 49.6207C177.781 49.6876 177.921 49.7285 178.065 49.741C178.209 49.7535 178.354 49.7375 178.492 49.6937C178.629 49.65 178.757 49.5794 178.867 49.4862L183.242 45.8403C183.365 45.7377 183.464 45.6092 183.532 45.464C183.6 45.3187 183.636 45.1603 183.636 45C183.636 44.8396 183.6 44.6812 183.532 44.5359C183.464 44.3907 183.365 44.2622 183.242 44.1596ZM175.624 35.951C175.489 35.9019 175.346 35.8799 175.202 35.8862C175.058 35.8925 174.918 35.927 174.787 35.9878C174.657 36.0486 174.54 36.1344 174.443 36.2404C174.346 36.3463 174.271 36.4704 174.222 36.6054L168.389 52.6471C168.29 52.9196 168.303 53.2203 168.426 53.483C168.549 53.7457 168.771 53.9489 169.043 54.048C169.163 54.0922 169.289 54.1147 169.417 54.1145C169.641 54.1146 169.861 54.0455 170.044 53.9167C170.228 53.7879 170.368 53.6055 170.445 53.3945L176.278 37.3528C176.327 37.2178 176.349 37.0744 176.343 36.9309C176.337 36.7874 176.302 36.6465 176.241 36.5163C176.181 36.3862 176.095 36.2692 175.989 36.1722C175.883 36.0752 175.759 36 175.624 35.951Z" fill="#343A40"/>
<g clip-path="url(#clip0_148_352)">
<path d="M35.9163 95.2778H31.9166L28.9999 100.042L26.5003 95.2778H17.3333L28.9999 115.694L40.6666 95.2778H35.9163ZM20.2499 96.9792H23.083L28.9999 107.528L34.9169 96.9792H37.7499L28.9999 112.292L20.2499 96.9792Z" fill="#343A40"/>
</g>
<g clip-path="url(#clip1_148_352)">
<path d="M65.6667 42.919C64.5197 42.919 63.5856 43.853 63.5856 45C63.5856 46.147 64.5197 47.081 65.6667 47.081C66.8136 47.081 67.7477 46.147 67.7477 45C67.7477 43.853 66.8136 42.919 65.6667 42.919ZM59.8406 49.1358L59.3813 49.0221C55.9629 48.1558 54 46.6902 54 44.9964C54 43.3025 55.9636 41.8369 59.3813 40.9706L59.8406 40.8569L59.9697 41.3126C60.3165 42.5063 60.7598 43.6697 61.2953 44.7915L61.3938 44.9964L61.2953 45.2049C60.7587 46.3262 60.3153 47.4897 59.9697 48.6838L59.8406 49.1358ZM59.1691 42.0338C56.571 42.7629 54.9764 43.8829 54.9764 44.9964C54.9764 46.1098 56.5718 47.2254 59.1691 47.959C59.4875 46.9473 59.8718 45.9577 60.3197 44.9964C59.8712 44.0353 59.4868 43.0456 59.1691 42.0338ZM71.4927 49.1358L71.3636 48.6801C71.0175 47.4874 70.5741 46.3251 70.038 45.2049L69.9396 44.9964L70.038 44.7878C70.5747 43.6666 71.018 42.503 71.3636 41.309L71.4927 40.8569L71.9521 40.9706C75.3704 41.8369 77.3333 43.3025 77.3333 44.9964C77.3333 46.6902 75.3697 48.1558 71.9521 49.0221L71.4927 49.1358ZM71.0136 44.9964C71.463 45.9571 71.8474 46.9468 72.1643 47.959C74.7659 47.2262 76.357 46.1098 76.357 44.9964C76.357 43.8829 74.7616 42.7673 72.1643 42.0338C71.8451 43.0451 71.4608 44.0347 71.0136 44.9964ZM59.161 42.0301L59.032 41.5744C58.0709 38.1867 58.3633 35.7564 59.8333 34.9091C61.2764 34.0771 63.5893 35.0607 66.0159 37.5523L66.3463 37.8906L66.0159 38.229C65.1542 39.1256 64.3668 40.0908 63.6615 41.115L63.5288 41.3009L63.3005 41.3199C62.0598 41.4178 60.8291 41.6161 59.6204 41.9127L59.161 42.0301ZM61.0066 35.5857C60.7448 35.5857 60.5129 35.639 60.319 35.7527C59.3543 36.3113 59.1836 38.2479 59.8479 40.8605C60.8844 40.6287 61.9349 40.465 62.9928 40.3705C63.6019 39.5031 64.2678 38.6771 64.9864 37.8979C63.4711 36.4206 62.0354 35.5857 61.0066 35.5857ZM70.3304 55.379C70.3268 55.379 70.3268 55.379 70.3304 55.379C68.9443 55.379 67.1629 54.3384 65.3174 52.4397L64.9871 52.1014L65.3174 51.763C66.1792 50.8664 66.9666 49.9012 67.6719 48.877L67.8009 48.691L68.0292 48.6684C69.2715 48.5738 70.5037 48.3755 71.7129 48.0756L72.1723 47.9619L72.3014 48.4176C73.2624 51.8053 72.97 54.232 71.5 55.0786C71.1446 55.2828 70.7403 55.3871 70.3304 55.379ZM66.3463 52.0941C67.8615 53.5714 69.2972 54.407 70.326 54.407H70.3297C70.5878 54.407 70.8197 54.3501 71.0136 54.24C71.9783 53.6815 72.1533 51.7448 71.4847 49.1322C70.4484 49.3643 69.3978 49.5268 68.3398 49.6185C67.7308 50.4872 67.0648 51.3137 66.3463 52.0941ZM72.1723 42.0301L71.7129 41.9127C70.5028 41.6171 69.2709 41.4188 68.0292 41.3199L67.8009 41.3009L67.6719 41.115C66.9666 40.0908 66.1792 39.1256 65.3174 38.229L64.9871 37.8906L65.3174 37.5523C67.7441 35.0607 70.057 34.0771 71.5 34.9091C72.97 35.7556 73.2624 38.1867 72.3014 41.5744L72.1723 42.0301ZM68.3405 40.3705C69.3984 40.4647 70.449 40.6284 71.4854 40.8605C72.1541 38.2479 71.9791 36.3105 71.0144 35.7527C70.0533 35.1985 68.2457 36.0488 66.347 37.8987C67.0636 38.6795 67.7294 39.5054 68.3405 40.3713V40.3705ZM61.0066 55.379C60.596 55.3863 60.1899 55.2842 59.8333 55.0793C58.3633 54.2327 58.0709 51.8053 59.032 48.4183L59.161 47.9626L59.6204 48.0764C60.7448 48.3615 61.9829 48.5583 63.3005 48.6692L63.5288 48.6918L63.6578 48.8777C64.3631 49.902 65.1505 50.8672 66.0123 51.7638L66.3426 52.1021L66.0123 52.4404C64.1704 54.3392 62.3891 55.3797 61.0066 55.3797V55.379ZM59.8486 49.1322C59.18 51.7448 59.355 53.6822 60.3197 54.24C61.2807 54.7869 63.0847 53.944 64.9871 52.0941C64.2685 51.3137 63.6026 50.4864 62.9935 49.6178C61.9355 49.5263 60.8849 49.3646 59.8486 49.1322ZM65.6667 49.7432C64.8653 49.7432 64.045 49.709 63.221 49.6404L62.9928 49.6215L62.8601 49.4319C62.3947 48.7631 61.9575 48.0752 61.5498 47.3698C61.1412 46.6644 60.7624 45.9421 60.4145 45.2049L60.316 44.9964L60.4145 44.7878C61.1116 43.3137 61.9296 41.8999 62.8601 40.5608L62.9928 40.3713L63.221 40.3523C64.8486 40.2152 66.4848 40.2152 68.1123 40.3523L68.3405 40.3713L68.4732 40.5608C69.4049 41.8991 70.223 43.3131 70.9189 44.7878L71.0173 44.9964L70.9189 45.2049C70.2244 46.6804 69.4063 48.0944 68.4732 49.4319L68.3405 49.6215L68.1123 49.6404C67.2989 49.7085 66.4829 49.7428 65.6667 49.7432ZM63.5324 48.6874C64.9681 48.7975 66.3652 48.7975 67.8046 48.6874C68.6073 47.5119 69.3208 46.2779 69.9389 44.9956C69.3234 43.7113 68.6086 42.4769 67.8009 41.3039C66.3802 41.1938 64.9531 41.1938 63.5324 41.3039C62.7242 42.4766 62.0094 43.711 61.3945 44.9956C62.0128 46.2785 62.7274 47.5126 63.5324 48.6874Z" fill="#343A40"/>
</g>
<g clip-path="url(#clip2_148_352)">
<path fill-rule="evenodd" clip-rule="evenodd" d="M177.333 175.001C177.333 172.987 177.854 171.009 178.846 169.256C179.837 167.504 181.265 166.038 182.99 165.001C184.716 163.964 186.68 163.391 188.693 163.338C190.705 163.285 192.697 163.754 194.475 164.699C196.252 165.643 197.755 167.032 198.838 168.73C199.92 170.427 200.544 172.376 200.65 174.386C200.756 176.397 200.341 178.4 199.443 180.202C198.546 182.004 197.197 183.543 195.529 184.67L184.966 169.883C184.871 169.749 184.735 169.648 184.578 169.596C184.422 169.545 184.253 169.544 184.096 169.594C183.939 169.644 183.803 169.743 183.705 169.876C183.608 170.009 183.556 170.169 183.555 170.334V182.001H185.111V172.761L194.18 185.457C192.401 186.339 190.427 186.751 188.443 186.657C186.46 186.562 184.534 185.963 182.847 184.916C181.161 183.869 179.769 182.409 178.804 180.674C177.839 178.939 177.333 176.986 177.333 175.001ZM192.889 178.889V169.556H194.444V178.889H192.889Z" fill="#343A40"/>
</g>
<g clip-path="url(#clip3_148_352)">
<path d="M204.491 113.198L204.439 113.094C204.336 112.887 204.336 112.68 204.388 112.422H198.802L207.077 97.7335L210.543 103.992L211.68 103.164L208.215 96.9059C208.164 96.8025 207.75 96.182 207.077 96.182C206.767 96.182 206.302 96.2854 205.94 96.9578L197.561 111.801C197.509 111.956 197.147 112.629 197.458 113.198C197.664 113.508 197.975 113.818 198.699 113.818H205.733C205.009 113.818 204.647 113.508 204.491 113.198H204.491ZM220.421 111.853L213.697 99.7505C213.594 99.647 213.232 98.9745 212.559 98.9745C212.249 98.9745 211.784 99.1298 211.422 99.7504L210.542 101.198V103.991L212.559 100.526L219.231 112.422H216.697C216.739 112.668 216.703 112.921 216.594 113.146L216.542 113.197C216.232 113.766 215.456 113.818 215.352 113.818H219.283C219.438 113.818 220.162 113.766 220.524 113.197C220.679 112.939 220.783 112.473 220.421 111.853ZM216.749 113.198V113.146L216.801 113.043C216.852 112.836 216.904 112.629 216.852 112.422L216.645 111.801L211.37 102.595L210.594 101.199H210.542L209.766 102.595L204.491 111.801L204.284 112.422C204.234 112.685 204.27 112.957 204.388 113.198C204.595 113.508 204.905 113.818 205.629 113.818H215.456C215.611 113.818 216.387 113.767 216.749 113.198ZM210.542 103.991L215.352 112.422H205.732L210.542 103.991Z" fill="#343A40"/>
</g>
<g clip-path="url(#clip4_148_352)">
<path d="M37.3333 165.885C37.3333 164.477 38.4766 163.333 39.8853 163.333H58.1145C59.5233 163.333 60.6666 164.477 60.6666 165.885V168.802C60.6666 169.092 60.5514 169.37 60.3462 169.576C60.1411 169.781 59.8629 169.896 59.5728 169.896C59.2828 169.896 59.0046 169.781 58.7994 169.576C58.5943 169.37 58.4791 169.092 58.4791 168.802V165.885C58.4791 165.789 58.4407 165.696 58.3723 165.628C58.3039 165.559 58.2112 165.521 58.1145 165.521H39.8853C39.7886 165.521 39.6959 165.559 39.6275 165.628C39.5592 165.696 39.5208 165.789 39.5208 165.885V184.115C39.5208 184.316 39.6841 184.479 39.8853 184.479H59.5728C59.8629 184.479 60.1411 184.594 60.3462 184.8C60.5514 185.005 60.6666 185.283 60.6666 185.573C60.6666 185.863 60.5514 186.141 60.3462 186.346C60.1411 186.551 59.8629 186.667 59.5728 186.667H39.8853C39.2085 186.667 38.5593 186.398 38.0807 185.919C37.6021 185.441 37.3333 184.791 37.3333 184.115V165.885ZM44.2603 172.813C44.2603 172.522 44.3756 172.244 44.5807 172.039C44.7858 171.834 45.064 171.719 45.3541 171.719H50.8228C51.1129 171.719 51.3911 171.834 51.5962 172.039C51.8014 172.244 51.9166 172.522 51.9166 172.813C51.9166 173.103 51.8014 173.381 51.5962 173.586C51.3911 173.791 51.1129 173.906 50.8228 173.906H49.3645V181.563C49.3645 181.853 49.2493 182.131 49.0442 182.336C48.839 182.541 48.5608 182.656 48.2708 182.656C47.9807 182.656 47.7025 182.541 47.4974 182.336C47.2922 182.131 47.177 181.853 47.177 181.563V173.906H45.3541C45.064 173.906 44.7858 173.791 44.5807 173.586C44.3756 173.381 44.2603 173.103 44.2603 172.813ZM53.7774 172.929C54.387 172.203 55.3451 171.719 56.6562 171.719C57.8739 171.719 58.7926 172.136 59.4124 172.791C59.6045 173.003 59.7058 173.282 59.6947 173.567C59.6836 173.853 59.5609 174.123 59.353 174.32C59.1451 174.516 58.8684 174.624 58.5824 174.619C58.2963 174.613 58.0237 174.497 57.8228 174.293C57.6624 174.124 57.3416 173.906 56.6562 173.906C55.927 173.906 55.6062 174.151 55.4516 174.337C55.2971 174.524 55.2081 174.757 55.1978 175C55.1978 175.152 55.2605 175.438 55.4516 175.664C55.6076 175.849 55.9255 176.094 56.6562 176.094C56.767 176.094 56.8735 176.11 56.9741 176.14C57.941 176.278 58.6716 176.709 59.1703 177.304C59.7449 177.99 59.9374 178.798 59.9374 179.375C59.9374 179.953 59.7449 180.76 59.1703 181.446C58.5608 182.172 57.6026 182.656 56.2916 182.656C55.0739 182.656 54.1551 182.239 53.5353 181.584C53.3433 181.372 53.2419 181.094 53.253 180.808C53.2641 180.522 53.3868 180.252 53.5948 180.055C53.8027 179.859 54.0793 179.751 54.3654 179.757C54.6514 179.762 54.9241 179.879 55.1249 180.082C55.2853 180.252 55.6062 180.469 56.2916 180.469C57.0208 180.469 57.3416 180.224 57.4962 180.039C57.6506 179.851 57.7397 179.618 57.7499 179.375C57.7499 179.223 57.6872 178.938 57.4962 178.712C57.3401 178.526 57.0222 178.281 56.2916 178.281C56.1839 178.282 56.0768 178.266 55.9737 178.235C55.0068 178.096 54.2762 177.666 53.7774 177.071C53.2915 176.489 53.0206 175.758 53.0103 175C53.0103 174.423 53.2028 173.615 53.7774 172.929Z" fill="#343A40"/>
</g>
<defs>
<filter id="filter0_d_148_352" x="0" y="0" width="238" height="238" filterUnits="userSpaceOnUse" color-interpolation-filters="sRGB">
<feFlood flood-opacity="0" result="BackgroundImageFix"/>
<feColorMatrix in="SourceAlpha" type="matrix" values="0 0 0 0 0 0 0 0 0 0 0 0 0 0 0 0 0 0 127 0" result="hardAlpha"/>
<feOffset dy="4"/>
<feGaussianBlur stdDeviation="2"/>
<feComposite in2="hardAlpha" operator="out"/>
<feColorMatrix type="matrix" values="0 0 0 0 0 0 0 0 0 0 0 0 0 0 0 0 0 0 0.25 0"/>
<feBlend mode="normal" in2="BackgroundImageFix" result="effect1_dropShadow_148_352"/>
<feBlend mode="normal" in="SourceGraphic" in2="effect1_dropShadow_148_352" result="shape"/>
</filter>
<clipPath id="clip0_148_352">
<rect width="23.3333" height="23.3333" fill="white" transform="translate(17.3333 93.3333)"/>
</clipPath>
<clipPath id="clip1_148_352">
<rect width="23.3333" height="23.3333" fill="white" transform="translate(54 33.3333)"/>
</clipPath>
<clipPath id="clip2_148_352">
<rect width="23.3333" height="23.3333" fill="white" transform="translate(177.333 163.333)"/>
</clipPath>
<clipPath id="clip3_148_352">
<rect width="23.3333" height="23.3333" fill="white" transform="translate(197.333 93.3333)"/>
</clipPath>
<clipPath id="clip4_148_352">
<rect width="23.3333" height="23.3333" fill="white" transform="translate(37.3333 163.333)"/>
</clipPath>
</defs>
</svg>
