<svg width="761" height="761" viewBox="0 0 761 761" fill="none" xmlns="http://www.w3.org/2000/svg">
<g filter="url(#filter0_d_148_352)">
<circle cx="380.5" cy="376.5" r="376.5" fill="#F3F4F6"/>
</g>
<path d="M255 493.204L324.355 290.254M506 466.588L453.158 291.624M453.158 291.624L393.711 87.3043L324.355 290.254M453.158 291.624L324.355 290.254M453.158 291.624H506V546.437C506 652.903 314.447 732.752 255 526.475" stroke="#343A40" stroke-width="20" stroke-linecap="round" stroke-linejoin="round"/>
<path d="M538.303 138.141L527.28 147.326L538.303 156.511C538.668 156.811 538.971 157.18 539.193 157.597C539.415 158.014 539.553 158.471 539.598 158.941C539.642 159.412 539.594 159.887 539.454 160.338C539.314 160.79 539.087 161.209 538.784 161.572C538.482 161.936 538.11 162.235 537.692 162.454C537.273 162.673 536.815 162.807 536.344 162.848C535.873 162.889 535.398 162.836 534.948 162.693C534.498 162.55 534.08 162.319 533.719 162.014L519.396 150.077C518.992 149.741 518.668 149.321 518.445 148.845C518.222 148.37 518.107 147.851 518.107 147.326C518.107 146.801 518.222 146.282 518.445 145.807C518.668 145.332 518.992 144.911 519.396 144.575L533.719 132.639C534.45 132.04 535.388 131.754 536.328 131.844C537.269 131.933 538.136 132.391 538.74 133.116C539.345 133.842 539.638 134.778 539.556 135.719C539.474 136.66 539.024 137.531 538.303 138.141ZM590.822 144.575L576.498 132.639C576.138 132.333 575.72 132.102 575.27 131.959C574.819 131.816 574.345 131.763 573.874 131.804C573.403 131.845 572.945 131.979 572.526 132.198C572.107 132.417 571.736 132.717 571.433 133.08C571.131 133.443 570.903 133.862 570.764 134.314C570.624 134.766 570.575 135.24 570.62 135.711C570.665 136.181 570.802 136.638 571.024 137.056C571.247 137.473 571.549 137.842 571.915 138.141L582.938 147.326L571.915 156.511C571.549 156.811 571.247 157.18 571.024 157.597C570.802 158.014 570.665 158.471 570.62 158.941C570.575 159.412 570.624 159.887 570.764 160.338C570.903 160.79 571.131 161.209 571.433 161.572C571.736 161.936 572.107 162.235 572.526 162.454C572.945 162.673 573.403 162.807 573.874 162.848C574.345 162.889 574.819 162.836 575.27 162.693C575.72 162.55 576.138 162.319 576.498 162.014L590.822 150.077C591.225 149.741 591.55 149.321 591.772 148.845C591.995 148.37 592.111 147.851 592.111 147.326C592.111 146.801 591.995 146.282 591.772 145.807C591.55 145.332 591.225 144.911 590.822 144.575ZM565.881 117.701C565.439 117.54 564.97 117.468 564.5 117.488C564.03 117.509 563.569 117.622 563.143 117.821C562.716 118.02 562.334 118.301 562.016 118.648C561.698 118.995 561.452 119.401 561.292 119.843L542.194 172.362C541.87 173.255 541.914 174.239 542.316 175.099C542.718 175.959 543.444 176.624 544.336 176.949C544.728 177.093 545.142 177.167 545.56 177.166C546.295 177.167 547.012 176.94 547.615 176.519C548.217 176.097 548.675 175.5 548.926 174.809L568.024 122.29C568.184 121.848 568.257 121.379 568.236 120.909C568.215 120.439 568.102 119.978 567.903 119.551C567.704 119.125 567.423 118.742 567.076 118.425C566.729 118.107 566.323 117.861 565.881 117.701Z" fill="#343A40"/>
<g clip-path="url(#clip0_148_352)">
<path d="M108.492 311.931H95.3968L85.8479 327.528L77.6645 311.931H47.6522L85.8479 378.774L124.044 311.931H108.492ZM57.2011 317.501H66.4763L85.8479 352.037L105.219 317.501H114.495L85.8479 367.633L57.2011 317.501Z" fill="#343A40"/>
</g>
<g clip-path="url(#clip1_148_352)">
<path d="M205.891 140.513C202.136 140.513 199.078 143.571 199.078 147.326C199.078 151.081 202.136 154.139 205.891 154.139C209.646 154.139 212.704 151.081 212.704 147.326C212.704 143.571 209.646 140.513 205.891 140.513ZM186.817 160.866L185.313 160.494C174.122 157.658 167.696 152.86 167.696 147.314C167.696 141.769 174.124 136.97 185.313 134.134L186.817 133.762L187.24 135.254C188.375 139.162 189.827 142.971 191.58 146.643L191.902 147.314L191.58 147.997C189.823 151.668 188.371 155.477 187.24 159.386L186.817 160.866ZM184.619 137.615C176.113 140.002 170.892 143.669 170.892 147.314C170.892 150.959 176.115 154.612 184.619 157.013C185.661 153.702 186.919 150.461 188.386 147.314C186.917 144.168 185.659 140.928 184.619 137.615ZM224.965 160.866L224.543 159.374C223.409 155.47 221.958 151.664 220.203 147.997L219.88 147.314L220.203 146.631C221.96 142.961 223.411 139.151 224.543 135.242L224.965 133.762L226.469 134.134C237.66 136.97 244.087 141.769 244.087 147.314C244.087 152.86 237.658 157.658 226.469 160.494L224.965 160.866ZM223.397 147.314C224.868 150.459 226.126 153.7 227.164 157.013C235.681 154.614 240.89 150.959 240.89 147.314C240.89 143.669 235.667 140.016 227.164 137.615C226.119 140.926 224.861 144.166 223.397 147.314ZM184.592 137.603L184.17 136.111C181.023 125.02 181.981 117.063 186.793 114.289C191.518 111.565 199.09 114.786 207.035 122.943L208.116 124.051L207.035 125.158C204.213 128.094 201.635 131.254 199.326 134.607L198.892 135.216L198.145 135.278C194.083 135.598 190.053 136.247 186.096 137.219L184.592 137.603ZM190.634 116.505C189.777 116.505 189.018 116.679 188.383 117.051C185.225 118.88 184.666 125.22 186.841 133.774C190.234 133.015 193.674 132.479 197.137 132.17C199.131 129.33 201.312 126.625 203.664 124.074C198.703 119.238 194.003 116.505 190.634 116.505ZM221.16 181.306C221.148 181.306 221.148 181.306 221.16 181.306C216.622 181.306 210.79 177.899 204.748 171.683L203.666 170.575L204.748 169.468C207.569 166.532 210.147 163.372 212.456 160.019L212.879 159.41L213.626 159.336C217.693 159.026 221.727 158.377 225.686 157.395L227.19 157.023L227.613 158.515C230.759 169.606 229.802 177.551 224.989 180.322C223.825 180.991 222.502 181.333 221.16 181.306ZM208.116 170.551C213.077 175.388 217.777 178.124 221.146 178.124H221.158C222.003 178.124 222.762 177.938 223.397 177.577C226.555 175.748 227.128 169.408 224.939 160.855C221.546 161.614 218.107 162.146 214.643 162.447C212.649 165.291 210.469 167.996 208.116 170.551ZM227.19 137.603L225.686 137.219C221.724 136.251 217.691 135.602 213.626 135.278L212.879 135.216L212.456 134.607C210.147 131.254 207.569 128.094 204.748 125.158L203.666 124.051L204.748 122.943C212.692 114.786 220.265 111.565 224.989 114.289C229.802 117.061 230.759 125.02 227.613 136.111L227.19 137.603ZM214.645 132.17C218.109 132.478 221.548 133.014 224.941 133.774C227.13 125.22 226.557 118.877 223.399 117.051C220.253 115.237 214.335 118.02 208.118 124.077C210.465 126.633 212.645 129.337 214.645 132.172V132.17ZM190.634 181.306C189.29 181.33 187.961 180.996 186.793 180.325C181.981 177.553 181.023 169.606 184.17 158.517L184.592 157.025L186.096 157.398C189.777 158.331 193.831 158.976 198.145 159.339L198.892 159.413L199.314 160.021C201.623 163.375 204.201 166.535 207.023 169.47L208.104 170.578L207.023 171.685C200.993 177.902 195.161 181.308 190.634 181.308V181.306ZM186.844 160.855C184.654 169.408 185.227 175.751 188.386 177.577C191.532 179.367 197.438 176.608 203.666 170.551C201.314 167.996 199.133 165.288 197.14 162.444C193.676 162.145 190.236 161.615 186.844 160.855ZM205.891 162.855C203.268 162.855 200.582 162.743 197.884 162.518L197.137 162.456L196.703 161.836C195.179 159.646 193.748 157.394 192.413 155.085C191.075 152.775 189.835 150.41 188.696 147.997L188.374 147.314L188.696 146.631C190.978 141.805 193.656 137.177 196.703 132.793L197.137 132.172L197.884 132.11C203.213 131.661 208.57 131.661 213.898 132.11L214.645 132.172L215.08 132.793C218.13 137.174 220.808 141.803 223.086 146.631L223.409 147.314L223.086 147.997C220.813 152.828 218.134 157.457 215.08 161.836L214.645 162.456L213.898 162.518C211.235 162.741 208.564 162.854 205.891 162.855ZM198.904 159.398C203.604 159.759 208.178 159.759 212.891 159.398C215.519 155.55 217.854 151.51 219.878 147.312C217.863 143.107 215.523 139.066 212.879 135.225C208.227 134.865 203.555 134.865 198.904 135.225C196.258 139.065 193.918 143.106 191.904 147.312C193.929 151.512 196.268 155.552 198.904 159.398Z" fill="#343A40"/>
</g>
<g clip-path="url(#clip2_148_352)">
<path fill-rule="evenodd" clip-rule="evenodd" d="M571.478 572.936C571.479 566.346 573.184 559.867 576.43 554.13C579.675 548.394 584.349 543.595 589.999 540.2C595.648 536.805 602.079 534.929 608.668 534.755C615.257 534.582 621.778 536.116 627.598 539.209C633.418 542.302 638.339 546.848 641.882 552.406C645.425 557.964 647.469 564.343 647.816 570.925C648.164 577.507 646.802 584.066 643.864 589.966C640.925 595.866 636.51 600.905 631.048 604.593L596.468 556.181C596.155 555.742 595.71 555.414 595.199 555.244C594.687 555.074 594.134 555.071 593.62 555.235C593.106 555.399 592.658 555.722 592.34 556.158C592.021 556.593 591.85 557.119 591.849 557.658V595.854H596.942V565.603L626.633 607.17C620.809 610.056 614.345 611.408 607.852 611.098C601.36 610.788 595.054 608.826 589.531 605.398C584.009 601.97 579.452 597.19 576.293 591.51C573.134 585.829 571.477 579.436 571.478 572.936ZM622.406 585.668V555.112H627.499V585.668H622.406Z" fill="#343A40"/>
</g>
<g clip-path="url(#clip3_148_352)">
<path d="M660.391 370.599L660.222 370.261C659.883 369.583 659.883 368.906 660.053 368.059H641.766L668.858 319.971L680.203 340.459L683.928 337.75L672.583 317.261C672.414 316.923 671.059 314.891 668.858 314.891C667.842 314.891 666.318 315.23 665.133 317.431L637.702 366.028C637.533 366.535 636.348 368.737 637.363 370.599C638.041 371.615 639.057 372.631 641.428 372.631H664.456C662.085 372.631 660.9 371.615 660.392 370.599H660.391ZM712.543 366.197L690.531 326.575C690.193 326.236 689.007 324.034 686.806 324.034C685.79 324.034 684.266 324.542 683.081 326.574L680.202 331.315V340.459L686.806 329.113L708.649 368.059H700.352C700.491 368.865 700.372 369.695 700.013 370.43L699.844 370.599C698.828 372.461 696.288 372.631 695.949 372.631H708.818C709.326 372.631 711.696 372.461 712.882 370.599C713.389 369.752 713.728 368.228 712.543 366.197ZM700.521 370.599V370.43L700.691 370.091C700.86 369.414 701.029 368.737 700.86 368.059L700.183 366.028L682.911 335.888L680.371 331.316H680.202L677.662 335.888L660.391 366.028L659.713 368.059C659.549 368.92 659.668 369.811 660.052 370.599C660.73 371.615 661.745 372.631 664.117 372.631H696.288C696.796 372.631 699.336 372.462 700.521 370.599ZM680.202 340.459L695.95 368.059H664.455L680.202 340.459Z" fill="#343A40"/>
</g>
<g clip-path="url(#clip4_148_352)">
<path d="M113.13 543.094C113.13 538.482 116.874 534.739 121.486 534.739H181.166C185.779 534.739 189.522 538.482 189.522 543.094V552.643C189.522 553.593 189.144 554.504 188.473 555.175C187.801 555.847 186.891 556.224 185.941 556.224C184.991 556.224 184.08 555.847 183.409 555.175C182.737 554.504 182.36 553.593 182.36 552.643V543.094C182.36 542.778 182.234 542.474 182.01 542.25C181.787 542.027 181.483 541.901 181.166 541.901H121.486C121.169 541.901 120.866 542.027 120.642 542.25C120.418 542.474 120.292 542.778 120.292 543.094V602.775C120.292 603.434 120.827 603.969 121.486 603.969H185.941C186.891 603.969 187.801 604.346 188.473 605.018C189.144 605.689 189.522 606.6 189.522 607.55C189.522 608.499 189.144 609.41 188.473 610.082C187.801 610.753 186.891 611.13 185.941 611.13H121.486C119.27 611.13 117.145 610.25 115.578 608.683C114.011 607.116 113.13 604.991 113.13 602.775V543.094ZM135.809 565.773C135.809 564.823 136.186 563.913 136.858 563.241C137.529 562.57 138.44 562.192 139.39 562.192H157.294C158.244 562.192 159.155 562.57 159.826 563.241C160.498 563.913 160.875 564.823 160.875 565.773C160.875 566.723 160.498 567.634 159.826 568.305C159.155 568.977 158.244 569.354 157.294 569.354H152.52V594.42C152.52 595.37 152.142 596.28 151.471 596.952C150.799 597.623 149.888 598.001 148.939 598.001C147.989 598.001 147.078 597.623 146.407 596.952C145.735 596.28 145.358 595.37 145.358 594.42V569.354H139.39C138.44 569.354 137.529 568.977 136.858 568.305C136.186 567.634 135.809 566.723 135.809 565.773ZM166.967 566.155C168.963 563.777 172.1 562.192 176.392 562.192C180.379 562.192 183.387 563.558 185.416 565.701C186.044 566.396 186.376 567.309 186.34 568.244C186.304 569.18 185.902 570.065 185.221 570.708C184.54 571.351 183.635 571.702 182.698 571.686C181.762 571.669 180.869 571.286 180.211 570.619C179.686 570.065 178.636 569.354 176.392 569.354C174.005 569.354 172.954 570.156 172.448 570.762C171.943 571.377 171.651 572.14 171.617 572.935C171.617 573.431 171.823 574.367 172.448 575.107C172.959 575.714 174 576.516 176.392 576.516C176.755 576.516 177.103 576.568 177.433 576.668C180.598 577.117 182.99 578.53 184.623 580.478C186.504 582.722 187.134 585.367 187.134 587.258C187.134 589.149 186.504 591.794 184.623 594.038C182.627 596.416 179.491 598.001 175.198 598.001C171.212 598.001 168.204 596.635 166.175 594.491C165.546 593.797 165.214 592.884 165.25 591.948C165.287 591.013 165.688 590.128 166.369 589.485C167.05 588.842 167.956 588.491 168.892 588.507C169.829 588.524 170.721 588.907 171.379 589.574C171.904 590.128 172.954 590.839 175.198 590.839C177.586 590.839 178.636 590.037 179.142 589.431C179.648 588.816 179.939 588.053 179.973 587.258C179.973 586.762 179.767 585.826 179.142 585.086C178.631 584.479 177.59 583.677 175.198 583.677C174.846 583.678 174.495 583.627 174.157 583.525C170.992 583.071 168.6 581.662 166.967 579.715C165.376 577.81 164.49 575.416 164.456 572.935C164.456 571.044 165.086 568.399 166.967 566.155Z" fill="#343A40"/>
</g>
<defs>
<filter id="filter0_d_148_352" x="0" y="0" width="761" height="761" filterUnits="userSpaceOnUse" color-interpolation-filters="sRGB">
<feFlood flood-opacity="0" result="BackgroundImageFix"/>
<feColorMatrix in="SourceAlpha" type="matrix" values="0 0 0 0 0 0 0 0 0 0 0 0 0 0 0 0 0 0 127 0" result="hardAlpha"/>
<feOffset dy="4"/>
<feGaussianBlur stdDeviation="2"/>
<feComposite in2="hardAlpha" operator="out"/>
<feColorMatrix type="matrix" values="0 0 0 0 0 0 0 0 0 0 0 0 0 0 0 0 0 0 0.25 0"/>
<feBlend mode="normal" in2="BackgroundImageFix" result="effect1_dropShadow_148_352"/>
<feBlend mode="normal" in="SourceGraphic" in2="effect1_dropShadow_148_352" result="shape"/>
</filter>
<clipPath id="clip0_148_352">
<rect width="76.3913" height="76.3913" fill="white" transform="translate(47.6522 305.565)"/>
</clipPath>
<clipPath id="clip1_148_352">
<rect width="76.3913" height="76.3913" fill="white" transform="translate(167.696 109.13)"/>
</clipPath>
<clipPath id="clip2_148_352">
<rect width="76.3913" height="76.3913" fill="white" transform="translate(571.478 534.739)"/>
</clipPath>
<clipPath id="clip3_148_352">
<rect width="76.3913" height="76.3913" fill="white" transform="translate(636.957 305.565)"/>
</clipPath>
<clipPath id="clip4_148_352">
<rect width="76.3913" height="76.3913" fill="white" transform="translate(113.13 534.739)"/>
</clipPath>
</defs>
</svg>
