<svg width="499" height="499" viewBox="0 0 499 499" fill="none" xmlns="http://www.w3.org/2000/svg">
<g filter="url(#filter0_d_155_368)">
<circle cx="249.5" cy="245.5" r="245.5" fill="#F9FEFE"/>
</g>
<path d="M167.667 321.598L212.89 189.263M331.333 304.243L296.877 190.156M296.877 190.156L258.114 56.9276L212.89 189.263M296.877 190.156L212.89 189.263M296.877 190.156H331.333V356.309C331.333 425.731 206.43 477.797 167.667 343.292" stroke="#343A40" stroke-width="14" stroke-linecap="round" stroke-linejoin="round"/>
<path d="M358.609 98.5026L348.22 107.159L358.609 115.816C358.954 116.099 359.239 116.446 359.449 116.84C359.658 117.233 359.788 117.664 359.83 118.107C359.872 118.55 359.826 118.998 359.694 119.424C359.563 119.849 359.348 120.244 359.063 120.587C358.778 120.929 358.428 121.212 358.033 121.418C357.638 121.624 357.207 121.75 356.763 121.789C356.319 121.828 355.872 121.778 355.447 121.643C355.023 121.508 354.629 121.29 354.289 121.003L340.789 109.753C340.409 109.436 340.103 109.039 339.893 108.591C339.683 108.143 339.574 107.654 339.574 107.159C339.574 106.665 339.683 106.176 339.893 105.728C340.103 105.28 340.409 104.883 340.789 104.566L354.289 93.3163C354.978 92.7519 355.862 92.4825 356.748 92.5669C357.635 92.6512 358.452 93.0824 359.022 93.7666C359.592 94.4508 359.868 95.3325 359.791 96.2195C359.714 97.1066 359.289 97.9272 358.609 98.5026ZM408.109 104.566L394.609 93.3163C394.269 93.0285 393.876 92.8108 393.451 92.6758C393.027 92.5408 392.58 92.4912 392.136 92.5299C391.692 92.5685 391.26 92.6947 390.865 92.901C390.471 93.1073 390.12 93.3898 389.835 93.7321C389.55 94.0744 389.336 94.4697 389.204 94.8953C389.073 95.3209 389.027 95.7684 389.069 96.2119C389.111 96.6553 389.241 97.0861 389.45 97.4792C389.659 97.8724 389.945 98.2202 390.289 98.5026L400.679 107.159L390.289 115.816C389.945 116.099 389.659 116.446 389.45 116.84C389.241 117.233 389.111 117.664 389.069 118.107C389.027 118.55 389.073 118.998 389.204 119.424C389.336 119.849 389.55 120.244 389.835 120.587C390.12 120.929 390.471 121.212 390.865 121.418C391.26 121.624 391.692 121.75 392.136 121.789C392.58 121.828 393.027 121.778 393.451 121.643C393.876 121.508 394.269 121.29 394.609 121.003L408.109 109.753C408.49 109.436 408.795 109.039 409.005 108.591C409.215 108.143 409.324 107.654 409.324 107.159C409.324 106.665 409.215 106.176 409.005 105.728C408.795 105.28 408.49 104.883 408.109 104.566ZM384.602 79.2369C384.186 79.0854 383.743 79.0175 383.301 79.037C382.858 79.0564 382.423 79.163 382.021 79.3505C381.62 79.5381 381.259 79.8029 380.959 80.1299C380.66 80.4569 380.428 80.8396 380.277 81.2563L362.277 130.756C361.972 131.597 362.013 132.525 362.392 133.336C362.77 134.146 363.455 134.773 364.296 135.079C364.665 135.215 365.056 135.285 365.449 135.284C366.142 135.285 366.818 135.071 367.386 134.674C367.954 134.276 368.385 133.714 368.622 133.063L386.622 83.5625C386.773 83.1459 386.841 82.7036 386.822 82.2607C386.802 81.8178 386.696 81.3831 386.508 80.9814C386.321 80.5797 386.056 80.2189 385.729 79.9196C385.402 79.6203 385.019 79.3883 384.602 79.2369Z" fill="#343A40"/>
<path d="M87.342 194H75L66 208.7L58.287 194H30L66 257L102 194H87.342ZM39 199.25H47.742L66 231.8L84.258 199.25H93L66 246.5L39 199.25Z" fill="#343A40"/>
<path d="M132 89.5785C128.461 89.5785 125.578 92.4608 125.578 96C125.578 99.5393 128.461 102.422 132 102.422C135.539 102.422 138.422 99.5393 138.422 96C138.422 92.4608 135.539 89.5785 132 89.5785ZM114.023 108.762L112.605 108.411C102.057 105.738 96 101.216 96 95.9888C96 90.762 102.059 86.2395 112.605 83.5665L114.023 83.2155L114.421 84.6218C115.491 88.3051 116.859 91.8952 118.511 95.3565L118.815 95.9888L118.511 96.6323C116.855 100.092 115.487 103.683 114.421 107.367L114.023 108.762ZM111.95 86.847C103.934 89.097 99.0127 92.553 99.0127 95.9888C99.0127 99.4245 103.936 102.867 111.95 105.131C112.933 102.009 114.119 98.9552 115.501 95.9888C114.117 93.0232 112.931 89.9693 111.95 86.847ZM149.977 108.762L149.579 107.356C148.511 103.675 147.143 100.089 145.489 96.6323L145.185 95.9888L145.489 95.3453C147.145 91.8854 148.513 88.295 149.579 84.6105L149.977 83.2155L151.395 83.5665C161.943 86.2395 168 90.762 168 95.9888C168 101.216 161.941 105.738 151.395 108.411L149.977 108.762ZM148.499 95.9888C149.886 98.9532 151.072 102.007 152.05 105.131C160.078 102.869 164.987 99.4245 164.987 95.9888C164.987 92.553 160.064 89.1105 152.05 86.847C151.065 89.9678 149.879 93.0214 148.499 95.9888ZM111.926 86.8358L111.527 85.4295C108.562 74.976 109.464 67.4768 114 64.8623C118.453 62.295 125.59 65.3303 133.078 73.0185L134.097 74.0625L133.078 75.1065C130.419 77.8732 127.989 80.8515 125.812 84.012L125.403 84.5858L124.699 84.6443C120.87 84.9465 117.073 85.5582 113.343 86.4735L111.926 86.8358ZM117.62 66.9503C116.813 66.9503 116.097 67.1145 115.499 67.4655C112.522 69.189 111.995 75.165 114.045 83.2268C117.243 82.5113 120.485 82.0063 123.749 81.7148C125.629 79.0381 127.684 76.4893 129.901 74.085C125.225 69.5265 120.795 66.9503 117.62 66.9503ZM146.391 128.027C146.38 128.027 146.38 128.027 146.391 128.027C142.114 128.027 136.617 124.816 130.922 118.957L129.903 117.913L130.922 116.869C133.581 114.102 136.011 111.124 138.188 107.963L138.586 107.39L139.29 107.32C143.123 107.028 146.926 106.416 150.657 105.491L152.075 105.14L152.473 106.546C155.438 116.999 154.536 124.487 150 127.1C148.903 127.73 147.656 128.052 146.391 128.027ZM134.097 117.89C138.772 122.449 143.203 125.027 146.377 125.027H146.389C147.185 125.027 147.901 124.852 148.499 124.512C151.476 122.789 152.016 116.813 149.953 108.751C146.755 109.467 143.513 109.968 140.249 110.252C138.369 112.932 136.314 115.482 134.097 117.89ZM152.075 86.8358L150.657 86.4735C146.923 85.5612 143.122 84.9495 139.29 84.6443L138.586 84.5858L138.188 84.012C136.011 80.8515 133.581 77.8732 130.922 75.1065L129.903 74.0625L130.922 73.0185C138.41 65.3303 145.547 62.295 150 64.8623C154.536 67.4745 155.438 74.976 152.473 85.4295L152.075 86.8358ZM140.251 81.7148C143.515 82.0055 146.757 82.5106 149.955 83.2268C152.018 75.165 151.478 69.1868 148.501 67.4655C145.536 65.7555 139.958 68.379 134.099 74.0873C136.31 76.4967 138.365 79.0451 140.251 81.717V81.7148ZM117.62 128.027C116.354 128.049 115.1 127.734 114 127.102C109.464 124.49 108.562 116.999 111.527 106.548L111.926 105.142L113.343 105.493C116.813 106.373 120.633 106.98 124.699 107.322L125.403 107.392L125.801 107.966C127.978 111.126 130.407 114.104 133.067 116.871L134.086 117.915L133.067 118.959C127.383 124.818 121.886 128.029 117.62 128.029V128.027ZM114.047 108.751C111.984 116.813 112.524 122.791 115.501 124.512C118.466 126.2 124.033 123.599 129.903 117.89C127.686 115.482 125.631 112.93 123.751 110.249C120.487 109.967 117.245 109.468 114.047 108.751ZM132 110.636C129.527 110.636 126.996 110.531 124.453 110.319L123.749 110.261L123.34 109.676C121.904 107.612 120.555 105.489 119.297 103.313C118.036 101.136 116.867 98.9071 115.793 96.6323L115.489 95.9888L115.793 95.3453C117.944 90.7966 120.468 86.434 123.34 82.302L123.749 81.717L124.453 81.6585C129.476 81.2355 134.524 81.2355 139.547 81.6585L140.251 81.717L140.66 82.302C143.535 86.4316 146.06 90.7946 148.207 95.3453L148.51 95.9888L148.207 96.6323C146.064 101.185 143.539 105.549 140.66 109.676L140.251 110.261L139.547 110.319C137.036 110.529 134.519 110.635 132 110.636ZM125.414 107.378C129.844 107.718 134.155 107.718 138.597 107.378C141.074 103.751 143.275 99.9431 145.183 95.9865C143.284 92.0234 141.078 88.2146 138.586 84.5948C134.202 84.255 129.798 84.255 125.414 84.5948C122.92 88.2134 120.715 92.0224 118.817 95.9865C120.725 99.9451 122.93 103.753 125.414 107.378Z" fill="#343A40"/>
<g clip-path="url(#clip0_155_368)">
<path fill-rule="evenodd" clip-rule="evenodd" d="M362 378C362 371.788 363.608 365.682 366.667 360.275C369.725 354.868 374.131 350.345 379.456 347.145C384.78 343.945 390.842 342.177 397.052 342.014C403.262 341.85 409.408 343.296 414.894 346.211C420.379 349.126 425.017 353.411 428.356 358.65C431.696 363.888 433.623 369.901 433.95 376.104C434.277 382.308 432.994 388.49 430.224 394.051C427.455 399.611 423.294 404.36 418.146 407.837L385.554 362.208C385.258 361.794 384.839 361.485 384.357 361.324C383.874 361.164 383.353 361.161 382.869 361.316C382.385 361.471 381.962 361.775 381.662 362.186C381.362 362.596 381.2 363.091 381.2 363.6V399.6H386V371.088L413.984 410.265C408.495 412.986 402.402 414.26 396.283 413.968C390.164 413.675 384.22 411.826 379.015 408.596C373.81 405.365 369.515 400.859 366.538 395.505C363.56 390.151 361.999 384.126 362 378ZM410 390V361.2H414.8V390H410Z" fill="#343A40"/>
</g>
<path d="M431.088 246.296L430.928 245.977C430.609 245.338 430.609 244.7 430.769 243.902H413.533L439.068 198.578L449.761 217.888L453.271 215.334L442.578 196.024C442.419 195.705 441.142 193.79 439.068 193.79C438.11 193.79 436.674 194.109 435.557 196.184L409.703 241.987C409.543 242.465 408.426 244.541 409.384 246.296C410.022 247.253 410.979 248.211 413.214 248.211H434.919C432.684 248.211 431.567 247.253 431.088 246.296H431.088ZM480.242 242.146L459.495 204.802C459.176 204.482 458.058 202.407 455.984 202.407C455.026 202.407 453.59 202.886 452.473 204.801L449.76 209.27V217.888L455.984 207.195L476.571 243.901H468.751C468.882 244.661 468.77 245.443 468.432 246.136L468.272 246.295C467.315 248.051 464.921 248.21 464.601 248.21H476.731C477.209 248.21 479.443 248.051 480.561 246.295C481.039 245.497 481.359 244.061 480.242 242.146ZM468.911 246.296V246.136L469.07 245.817C469.23 245.178 469.389 244.54 469.23 243.902L468.592 241.987L452.312 213.579L449.919 209.271H449.759L447.365 213.579L431.087 241.987L430.449 243.902C430.294 244.713 430.406 245.553 430.768 246.296C431.407 247.253 432.364 248.211 434.599 248.211H464.921C465.4 248.211 467.794 248.051 468.911 246.296ZM449.76 217.888L464.602 243.902H434.918L449.76 217.888Z" fill="#343A40"/>
<g clip-path="url(#clip1_155_368)">
<path d="M74 349.875C74 345.528 77.577 342 81.9844 342H139.016C143.423 342 147 345.528 147 349.875V358.875C147 359.77 146.639 360.629 145.998 361.261C145.356 361.894 144.486 362.25 143.578 362.25C142.671 362.25 141.8 361.894 141.158 361.261C140.517 360.629 140.156 359.77 140.156 358.875V349.875C140.156 349.577 140.036 349.29 139.822 349.08C139.608 348.869 139.318 348.75 139.016 348.75H81.9844C81.6819 348.75 81.3917 348.869 81.1778 349.08C80.9639 349.29 80.8438 349.577 80.8438 349.875V406.125C80.8438 406.746 81.3548 407.25 81.9844 407.25H143.578C144.486 407.25 145.356 407.606 145.998 408.239C146.639 408.871 147 409.73 147 410.625C147 411.52 146.639 412.379 145.998 413.011C145.356 413.644 144.486 414 143.578 414H81.9844C79.8668 414 77.8359 413.17 76.3386 411.693C74.8412 410.217 74 408.214 74 406.125V349.875ZM95.6719 371.25C95.6719 370.355 96.0324 369.496 96.6741 368.864C97.3158 368.231 98.1862 367.875 99.0938 367.875H116.203C117.111 367.875 117.981 368.231 118.623 368.864C119.264 369.496 119.625 370.355 119.625 371.25C119.625 372.145 119.264 373.004 118.623 373.636C117.981 374.269 117.111 374.625 116.203 374.625H111.641V398.25C111.641 399.145 111.28 400.004 110.638 400.636C109.997 401.269 109.126 401.625 108.219 401.625C107.311 401.625 106.441 401.269 105.799 400.636C105.157 400.004 104.797 399.145 104.797 398.25V374.625H99.0938C98.1862 374.625 97.3158 374.269 96.6741 373.636C96.0324 373.004 95.6719 372.145 95.6719 371.25ZM125.447 371.61C127.354 369.369 130.351 367.875 134.453 367.875C138.263 367.875 141.137 369.162 143.076 371.183C143.677 371.837 143.994 372.697 143.959 373.579C143.925 374.461 143.541 375.295 142.89 375.901C142.24 376.508 141.374 376.838 140.479 376.823C139.584 376.807 138.731 376.446 138.103 375.817C137.601 375.295 136.597 374.625 134.453 374.625C132.172 374.625 131.168 375.381 130.684 375.953C130.201 376.532 129.923 377.251 129.891 378C129.891 378.468 130.087 379.35 130.684 380.047C131.173 380.619 132.167 381.375 134.453 381.375C134.8 381.375 135.133 381.424 135.448 381.519C138.473 381.942 140.758 383.274 142.319 385.11C144.116 387.225 144.719 389.718 144.719 391.5C144.719 393.282 144.116 395.775 142.319 397.89C140.412 400.131 137.414 401.625 133.312 401.625C129.503 401.625 126.628 400.338 124.689 398.318C124.088 397.663 123.771 396.803 123.806 395.921C123.841 395.039 124.225 394.205 124.875 393.599C125.526 392.992 126.391 392.662 127.286 392.677C128.181 392.693 129.034 393.054 129.662 393.682C130.164 394.204 131.168 394.875 133.312 394.875C135.594 394.875 136.598 394.119 137.081 393.547C137.564 392.968 137.843 392.249 137.875 391.5C137.875 391.032 137.679 390.15 137.081 389.453C136.593 388.881 135.598 388.125 133.312 388.125C132.976 388.126 132.64 388.077 132.318 387.981C129.293 387.554 127.007 386.226 125.447 384.39C123.927 382.595 123.079 380.339 123.047 378C123.047 376.218 123.649 373.725 125.447 371.61Z" fill="#343A40"/>
</g>
<defs>
<filter id="filter0_d_155_368" x="0" y="0" width="499" height="499" filterUnits="userSpaceOnUse" color-interpolation-filters="sRGB">
<feFlood flood-opacity="0" result="BackgroundImageFix"/>
<feColorMatrix in="SourceAlpha" type="matrix" values="0 0 0 0 0 0 0 0 0 0 0 0 0 0 0 0 0 0 127 0" result="hardAlpha"/>
<feOffset dy="4"/>
<feGaussianBlur stdDeviation="2"/>
<feComposite in2="hardAlpha" operator="out"/>
<feColorMatrix type="matrix" values="0 0 0 0 0 0 0 0 0 0 0 0 0 0 0 0 0 0 0.25 0"/>
<feBlend mode="normal" in2="BackgroundImageFix" result="effect1_dropShadow_155_368"/>
<feBlend mode="normal" in="SourceGraphic" in2="effect1_dropShadow_155_368" result="shape"/>
</filter>
<clipPath id="clip0_155_368">
<rect width="72" height="72" fill="white" transform="translate(362 342)"/>
</clipPath>
<clipPath id="clip1_155_368">
<rect width="73" height="72" fill="white" transform="translate(74 342)"/>
</clipPath>
</defs>
</svg>
